<svg width="138" height="138" viewBox="0 0 138 138" fill="none" xmlns="http://www.w3.org/2000/svg">
<g clip-path="url(#clip0_1316_2663)">
<rect width="138" height="138" fill="#77A293"/>
<rect width="138" height="138" fill="url(#paint0_linear_1316_2663)" fill-opacity="0.15" style="mix-blend-mode:multiply"/>
<path style="mix-blend-mode:multiply" fill-rule="evenodd" clip-rule="evenodd" d="M0 130V132C0 135.314 2.68629 138 6 138H132C135.314 138 138 135.314 138 132V130C138 133.314 135.314 136 132 136H6C2.68629 136 0 133.314 0 130ZM6 0C3.10051 0 0.681376 2.05669 0.121899 4.79079C0.681379 2.0567 3.10051 7.62939e-06 6 7.62939e-06L132 0C135.314 7.62939e-06 138 2.6863 138 6C138 2.68629 135.314 0 132 0H6Z" fill="black" fill-opacity="0.3"/>
<g style="mix-blend-mode:screen">
<path fill-rule="evenodd" clip-rule="evenodd" d="M137.936 132.881C137.51 135.777 135.014 138 132 138L6 138L132 138C135.014 138 137.51 135.777 137.936 132.881ZM1.11232e-05 7.99996C1.14067e-05 4.68625 2.68629 1.99996 6.00001 1.99996L132 1.99997C135.311 1.99997 137.995 4.68103 138 7.9903L138 6C138 2.68629 135.314 -2.39948e-07 132 -5.3594e-07L6.00001 -1.17907e-05C2.68631 -1.20867e-05 1.15778e-05 2.68628 1.12943e-05 5.99999L1.11232e-05 7.99996Z" fill="white" fill-opacity="0.2" style="mix-blend-mode:multiply"/>
</g>
<rect x="-1" width="26" height="12" fill="#005BBB"/>
<rect x="-1" y="12" width="26" height="12" fill="#FFD500"/>
<path d="M-14 66.2295L35.2806 25.3266L98.8525 21.877L117.086 56.3734L115.115 88.4057V115.51L98.8525 145.571L70.8005 150.892H-7.41513L-14 66.2295Z" fill="url(#paint1_linear_1316_2663)"/>
<g filter="url(#filter0_d_1316_2663)">
<path d="M67.8058 62.0065C75.8668 62.0065 82.4016 55.5541 82.4016 47.5947C82.4016 39.6353 75.8668 33.1829 67.8058 33.1829C59.7447 33.1829 53.21 39.6353 53.21 47.5947C53.21 55.5541 59.7447 62.0065 67.8058 62.0065Z" fill="white"/>
<path d="M45.6667 49.036H47.1386V47.7174C47.1475 43.8833 48.2292 40.1281 50.2613 36.8767C52.2934 33.6254 55.1949 31.0075 58.6374 29.3194C57.6182 26.9723 55.9824 24.945 53.9037 23.4529C51.8249 21.9609 49.3808 21.0597 46.831 20.8451C44.2812 20.6305 41.7209 21.1105 39.422 22.2342C37.1231 23.3578 35.1715 25.0832 33.7744 27.2269C32.3773 29.3707 31.5869 31.8528 31.4872 34.4097C31.3875 36.9665 31.9822 39.5027 33.2081 41.7487C34.434 43.9947 36.2453 45.8668 38.4497 47.1661C40.6541 48.4654 43.1693 49.1433 45.7281 49.128L45.6667 49.036ZM88.5343 47.5948V48.9133H90.0061C92.5308 48.888 95.002 48.1825 97.1595 46.8711C99.317 45.5597 101.081 43.691 102.266 41.4615C103.451 39.232 104.013 36.7243 103.893 34.2024C103.773 31.6804 102.975 29.2375 101.584 27.1306C100.193 25.0238 98.2589 23.3311 95.9865 22.2306C93.7142 21.1301 91.1872 20.6625 88.6715 20.8771C86.1558 21.0917 83.7445 21.9805 81.6914 23.45C79.6383 24.9195 78.0193 26.9153 77.0048 29.2274C80.4484 30.9089 83.353 33.5201 85.3904 36.7659C87.4278 40.0117 88.5168 43.7626 88.5343 47.5948ZM80.9604 63.4478C87.0571 64.6545 92.952 66.7193 98.4692 69.5805C99.2465 70.0075 99.9505 70.5561 100.554 71.2057H116.867V60.7188C116.87 60.3165 116.763 59.9211 116.558 59.5753C116.353 59.2294 116.057 58.9462 115.702 58.7563C107.755 54.5993 98.9137 52.4417 89.9448 52.4703H87.921C86.8583 56.7899 84.4143 60.6444 80.9604 63.4478ZM32.6348 77.1544C32.6292 75.6101 33.0462 74.0937 33.8407 72.7694C34.6353 71.4452 35.777 70.3636 37.1423 69.6418C42.6595 66.7806 48.5544 64.7159 54.6511 63.5091C51.214 60.7296 48.7715 56.9098 47.6905 52.6236H45.6667C36.6977 52.595 27.8569 54.7526 19.9094 58.9096C19.5548 59.0995 19.2589 59.3827 19.0535 59.7286C18.8482 60.0745 18.7412 60.4698 18.7442 60.8721V80.466H32.6348V77.1544ZM78.4153 94.8472H96.6907V99.1401H78.4153V94.8472Z" fill="white"/>
<path d="M113.219 78.197H92.1527V75.1307C92.1527 74.3174 91.8297 73.5375 91.2546 72.9624C90.6796 72.3874 89.8996 72.0643 89.0864 72.0643C88.2731 72.0643 87.4932 72.3874 86.9182 72.9624C86.3431 73.5375 86.02 74.3174 86.02 75.1307V78.197H80.0713V69.5192C76.037 68.6721 71.9281 68.2304 67.8059 68.2007C58.1278 68.1604 48.588 70.498 40.0248 75.008C39.6434 75.2059 39.3241 75.5053 39.1023 75.8733C38.8804 76.2413 38.7646 76.6634 38.7676 77.0931V94.2953H60.5694V112.969C60.5694 113.783 60.8924 114.563 61.4675 115.138C62.0425 115.713 62.8225 116.036 63.6357 116.036H113.219C114.032 116.036 114.812 115.713 115.387 115.138C115.962 114.563 116.285 113.783 116.285 112.969V81.2633C116.285 80.4501 115.962 79.6702 115.387 79.0951C114.812 78.5201 114.032 78.197 113.219 78.197ZM110.152 109.964H66.7021V84.3297H86.02V87.1201C86.02 87.9333 86.3431 88.7133 86.9182 89.2883C87.4932 89.8634 88.2731 90.1864 89.0864 90.1864C89.8996 90.1864 90.6796 89.8634 91.2546 89.2883C91.8297 88.7133 92.1527 87.9333 92.1527 87.1201V84.3297H110.152V109.964Z" fill="white"/>
</g>
<path d="M15.2936 132.727C13.1518 132.727 11.2305 132.336 9.52971 131.554C7.82891 130.74 6.47456 129.648 5.46667 128.28C4.49028 126.912 3.95484 125.397 3.86035 123.736H10.5219C10.6478 124.778 11.1348 125.775 11.9852 126.459C12.8671 127.143 14.0022 127.589 15.2936 127.589C16.5534 127.589 17.3886 127.363 18.0441 126.767C18.6997 126.171 18.9778 125.657 19.0771 124.835C19.1864 123.931 18.8785 123.212 17.9393 122.612C17.0889 122.156 15.7188 121.667 13.829 121.146C11.8762 120.658 10.2699 120.153 9.01002 119.631C7.78166 119.11 6.71078 118.312 5.79738 117.237C4.91548 116.162 4.47453 114.713 4.47453 112.888C4.47453 111.39 4.88399 110.022 5.70289 108.784C6.5533 107.546 7.75016 106.569 9.29349 105.852C10.8683 105.135 12.7109 104.777 14.8211 104.777C17.9393 104.777 20.4275 105.591 22.2858 107.22C24.1441 108.816 25.1677 110.983 25.3567 113.719H19.0259C18.9314 112.644 18.474 111.685 17.6866 111.066C16.9306 110.414 15.8789 109.915 14.5876 109.915C13.3907 109.915 12.5628 110.137 11.9654 110.675C11.3354 111.131 10.992 111.895 10.992 112.71C10.992 113.622 11.3408 114.403 12.2227 114.892C13.1046 115.348 14.4747 115.82 16.333 116.309C18.2227 116.797 19.7818 117.302 21.0102 117.824C22.2385 118.345 23.2937 119.159 24.1756 120.267C25.089 121.342 25.5614 122.775 25.5929 124.567C25.5929 126.13 25.1677 127.531 24.3173 128.769C23.4984 130.007 22.3015 130.984 20.7267 131.701C19.1834 132.385 17.3723 132.727 15.2936 132.727Z" fill="white"/>
<ellipse cx="31.4535" cy="128.194" rx="4.39535" ry="4.53237" fill="white"/>
</g>
<defs>
<filter id="filter0_d_1316_2663" x="18.7441" y="20.7952" width="98.123" height="97.2405" filterUnits="userSpaceOnUse" color-interpolation-filters="sRGB">
<feFlood flood-opacity="0" result="BackgroundImageFix"/>
<feColorMatrix in="SourceAlpha" type="matrix" values="0 0 0 0 0 0 0 0 0 0 0 0 0 0 0 0 0 0 127 0" result="hardAlpha"/>
<feOffset dy="2"/>
<feComposite in2="hardAlpha" operator="out"/>
<feColorMatrix type="matrix" values="0 0 0 0 0 0 0 0 0 0 0 0 0 0 0 0 0 0 0.5 0"/>
<feBlend mode="normal" in2="BackgroundImageFix" result="effect1_dropShadow_1316_2663"/>
<feBlend mode="normal" in="SourceGraphic" in2="effect1_dropShadow_1316_2663" result="shape"/>
</filter>
<linearGradient id="paint0_linear_1316_2663" x1="-2.57045e-07" y1="138" x2="140.965" y2="3.09775" gradientUnits="userSpaceOnUse">
<stop/>
<stop offset="1" stop-opacity="0"/>
</linearGradient>
<linearGradient id="paint1_linear_1316_2663" x1="0.512131" y1="151.42" x2="77.6708" y2="59.464" gradientUnits="userSpaceOnUse">
<stop stop-opacity="0.5"/>
<stop offset="1" stop-opacity="0"/>
</linearGradient>
<clipPath id="clip0_1316_2663">
<rect width="138" height="138" rx="6" fill="white"/>
</clipPath>
</defs>
</svg>
