<svg width="138" height="138" viewBox="0 0 138 138" fill="none" xmlns="http://www.w3.org/2000/svg">
<g clip-path="url(#clip0_1777_10156)">
<rect width="138" height="138" fill="#1CB1BB"/>
<rect width="138" height="138" fill="url(#paint0_linear_1777_10156)" fill-opacity="0.15" style="mix-blend-mode:multiply"/>
<path style="mix-blend-mode:multiply" fill-rule="evenodd" clip-rule="evenodd" d="M0 130V132C0 135.314 2.68629 138 6 138H132C135.314 138 138 135.314 138 132V130C138 133.314 135.314 136 132 136H6C2.68629 136 0 133.314 0 130ZM6 0C3.10051 0 0.681376 2.05669 0.121899 4.79079C0.681379 2.0567 3.10051 7.62939e-06 6 7.62939e-06L132 0C135.314 7.62939e-06 138 2.6863 138 6C138 2.68629 135.314 0 132 0H6Z" fill="black" fill-opacity="0.3"/>
<g style="mix-blend-mode:screen">
<path fill-rule="evenodd" clip-rule="evenodd" d="M137.936 132.881C137.51 135.777 135.014 138 132 138L6 138L132 138C135.014 138 137.51 135.777 137.936 132.881ZM1.11232e-05 7.99996C1.14067e-05 4.68625 2.68629 1.99996 6.00001 1.99996L132 1.99997C135.311 1.99997 137.995 4.68103 138 7.9903L138 6C138 2.68629 135.314 -2.39948e-07 132 -5.3594e-07L6.00001 -1.17907e-05C2.68631 -1.20867e-05 1.15778e-05 2.68628 1.12943e-05 5.99999L1.11232e-05 7.99996Z" fill="white" fill-opacity="0.2" style="mix-blend-mode:multiply"/>
</g>
<rect x="-1" width="26" height="12" fill="#005BBB"/>
<rect x="-1" y="12" width="26" height="12" fill="#FFD500"/>
<path d="M-4.98734 54.5661L46.4051 23.8423L67.924 18H71.2152L102.101 35.781L108.937 47.7197L114 62.1986L107.418 78.2014V83.0276L111.468 88.1081L100.05 105.635L36.384 192H-6L-4.98734 54.5661Z" fill="url(#paint1_linear_1777_10156)"/>
<g filter="url(#filter0_d_1777_10156)">
<path fill-rule="evenodd" clip-rule="evenodd" d="M68.146 18.3186C42.7146 19.1246 22.3457 39.9944 22.3457 65.6216C22.3457 73.6202 24.3299 81.1553 27.833 87.7616L68.146 64.4869V18.3186ZM29.3499 90.4116C37.6811 103.934 52.6242 112.949 69.6728 112.949C86.5697 112.949 101.398 104.094 109.772 90.7715L69.2492 67.3757L29.3499 90.4116ZM111.312 88.1352L71.1994 64.9759V18.3186C96.6309 19.1245 117 39.9943 117 65.6216C117 73.7713 114.94 81.44 111.312 88.1352ZM53.0488 55.9526H41.9872C40.8827 55.9526 39.9872 56.848 39.9872 57.9526V58.7871C39.9872 59.8917 40.8827 60.7871 41.9872 60.7871H45.9243V63.6216C45.9243 64.7262 46.8198 65.6216 47.9243 65.6216H48.674C49.7786 65.6216 50.674 64.7262 50.674 63.6216V60.7871H53.0488C54.6235 60.7871 56.1336 60.1504 57.247 59.0171C58.3604 57.8838 58.9859 56.3467 58.9859 54.744C58.9859 53.1412 58.3604 51.6042 57.247 50.4708C56.1336 49.3375 54.6235 48.7009 53.0488 48.7009H43.5495C43.2346 48.7009 42.9326 48.5735 42.7099 48.3469C42.4872 48.1202 42.3621 47.8128 42.3621 47.4922C42.3621 47.1717 42.4872 46.8643 42.7099 46.6376C42.9326 46.4109 43.2346 46.2836 43.5495 46.2836H54.6111C55.7157 46.2836 56.6111 45.3882 56.6111 44.2836V43.4491C56.6111 42.3446 55.7157 41.4491 54.6111 41.4491H50.674V38.6146C50.674 37.5101 49.7786 36.6146 48.674 36.6146H47.9243C46.8198 36.6146 45.9243 37.5101 45.9243 38.6146V41.4491H43.5495C41.9749 41.4491 40.4648 42.0858 39.3513 43.2191C38.2379 44.3524 37.6124 45.8895 37.6124 47.4922C37.6124 49.095 38.2379 50.6321 39.3513 51.7654C40.4648 52.8987 41.9749 53.5354 43.5495 53.5354H53.0488C53.3638 53.5354 53.6658 53.6627 53.8885 53.8894C54.1112 54.116 54.2363 54.4234 54.2363 54.744C54.2363 55.0645 54.1112 55.3719 53.8885 55.5986C53.6658 55.8253 53.3638 55.9526 53.0488 55.9526ZM82.213 62.072H88.3197V54.4386C88.3197 54.0061 88.4663 53.6432 88.7594 53.3501C89.0515 53.058 89.4138 52.912 89.8464 52.912H92.8997C93.3323 52.912 93.6951 53.058 93.9883 53.3501C94.2804 53.6432 94.4264 54.0061 94.4264 54.4386V62.072H100.533C100.966 62.072 101.328 61.9255 101.62 61.6324C101.913 61.3403 102.06 60.9779 102.06 60.5454V49.8586H104.655C105.011 49.8586 105.253 49.6932 105.38 49.3624C105.508 49.0316 105.431 48.7517 105.151 48.5227L102.06 45.7366V39.1718C102.06 38.7393 101.913 38.3764 101.62 38.0833C101.328 37.7912 100.966 37.6451 100.533 37.6451H99.0065C98.5739 37.6451 98.2116 37.7912 97.9195 38.0833C97.6263 38.3764 97.4798 38.7393 97.4798 39.1718V41.6145L92.4036 37.0345C92.1237 36.7546 91.7802 36.6146 91.3731 36.6146C90.9659 36.6146 90.6224 36.7546 90.3425 37.0345L77.5948 48.5227C77.3149 48.7517 77.2385 49.0316 77.3657 49.3624C77.493 49.6932 77.7347 49.8586 78.0909 49.8586H80.6863V60.5454C80.6863 60.9779 80.8323 61.3403 81.1244 61.6324C81.4176 61.9255 81.7804 62.072 82.213 62.072ZM93.5104 44.8389C94.1211 45.361 94.4264 46.0292 94.4264 46.8434H88.3197C88.3197 46.0292 88.625 45.361 89.2357 44.8389C89.8464 44.3178 90.5588 44.0572 91.3731 44.0572C92.1873 44.0572 92.8997 44.3178 93.5104 44.8389ZM60.5126 102.262V103.063C60.5126 103.7 60.2963 104.234 59.8638 104.666C59.4312 105.099 58.8842 105.315 58.2226 105.315C57.5865 105.315 57.046 105.092 56.6013 104.647C56.1555 104.202 55.9326 103.661 55.9326 103.025V91.5752L59.1386 82.4151C59.2913 81.9571 59.5651 81.5881 59.96 81.3082C60.3538 81.0283 60.7925 80.8884 61.276 80.8884H78.0695C78.5529 80.8884 78.9921 81.0283 79.387 81.3082C79.7809 81.5881 80.0541 81.9571 80.2068 82.4151L83.4128 91.5752V103.063C83.4128 103.7 83.1966 104.234 82.764 104.666C82.3314 105.099 81.7844 105.315 81.1228 105.315C80.4867 105.315 79.9463 105.092 79.5015 104.647C79.0557 104.202 78.8328 103.661 78.8328 103.025V102.262H60.5126ZM60.2073 88.5218H79.1381L77.5351 83.9417H61.8103L60.2073 88.5218ZM62.8026 97.6819C63.4388 97.6819 63.9792 97.459 64.424 97.0132C64.8698 96.5684 65.0927 96.028 65.0927 95.3919C65.0927 94.7557 64.8698 94.2153 64.424 93.7705C63.9792 93.3247 63.4388 93.1018 62.8026 93.1018C62.1665 93.1018 61.6261 93.3247 61.1813 93.7705C60.7355 94.2153 60.5126 94.7557 60.5126 95.3919C60.5126 96.028 60.7355 96.5684 61.1813 97.0132C61.6261 97.459 62.1665 97.6819 62.8026 97.6819ZM76.5428 97.6819C77.1789 97.6819 77.7193 97.459 78.1641 97.0132C78.6099 96.5684 78.8328 96.028 78.8328 95.3919C78.8328 94.7557 78.6099 94.2153 78.1641 93.7705C77.7193 93.3247 77.1789 93.1018 76.5428 93.1018C75.9067 93.1018 75.3662 93.3247 74.9214 93.7705C74.4756 94.2153 74.2528 94.7557 74.2528 95.3919C74.2528 96.028 74.4756 96.5684 74.9214 97.0132C75.3662 97.459 75.9067 97.6819 76.5428 97.6819Z" fill="white"/>
</g>
<path d="M15.2936 132.727C13.1518 132.727 11.2305 132.336 9.52971 131.554C7.82891 130.74 6.47456 129.648 5.46667 128.28C4.49028 126.912 3.95484 125.397 3.86035 123.736H10.5219C10.6478 124.778 11.1348 125.775 11.9852 126.459C12.8671 127.143 14.0022 127.589 15.2936 127.589C16.5534 127.589 17.3886 127.363 18.0441 126.767C18.6997 126.171 18.9778 125.657 19.0771 124.835C19.1864 123.931 18.8785 123.212 17.9393 122.612C17.0889 122.156 15.7188 121.667 13.829 121.146C11.8762 120.658 10.2699 120.153 9.01002 119.631C7.78166 119.11 6.71078 118.312 5.79738 117.237C4.91548 116.162 4.47453 114.713 4.47453 112.888C4.47453 111.39 4.88399 110.022 5.70289 108.784C6.5533 107.546 7.75016 106.569 9.29349 105.852C10.8683 105.135 12.7109 104.777 14.8211 104.777C17.9393 104.777 20.4275 105.591 22.2858 107.22C24.1441 108.816 25.1677 110.983 25.3567 113.719H19.0259C18.9314 112.644 18.474 111.685 17.6866 111.066C16.9306 110.414 15.8789 109.915 14.5876 109.915C13.3907 109.915 12.5628 110.137 11.9654 110.675C11.3354 111.131 10.992 111.895 10.992 112.71C10.992 113.622 11.3408 114.403 12.2227 114.892C13.1046 115.348 14.4747 115.82 16.333 116.309C18.2227 116.797 19.7818 117.302 21.0102 117.824C22.2385 118.345 23.2937 119.159 24.1756 120.267C25.089 121.342 25.5614 122.775 25.5929 124.567C25.5929 126.13 25.1677 127.531 24.3173 128.769C23.4984 130.007 22.3015 130.984 20.7267 131.701C19.1834 132.385 17.3723 132.727 15.2936 132.727Z" fill="white"/>
<ellipse cx="31.4535" cy="128.194" rx="4.39535" ry="4.53237" fill="white"/>
</g>
<defs>
<filter id="filter0_d_1777_10156" x="22.3457" y="18.3186" width="94.6543" height="96.6301" filterUnits="userSpaceOnUse" color-interpolation-filters="sRGB">
<feFlood flood-opacity="0" result="BackgroundImageFix"/>
<feColorMatrix in="SourceAlpha" type="matrix" values="0 0 0 0 0 0 0 0 0 0 0 0 0 0 0 0 0 0 127 0" result="hardAlpha"/>
<feOffset dy="2"/>
<feComposite in2="hardAlpha" operator="out"/>
<feColorMatrix type="matrix" values="0 0 0 0 0 0 0 0 0 0 0 0 0 0 0 0 0 0 0.5 0"/>
<feBlend mode="normal" in2="BackgroundImageFix" result="effect1_dropShadow_1777_10156"/>
<feBlend mode="normal" in="SourceGraphic" in2="effect1_dropShadow_1777_10156" result="shape"/>
</filter>
<linearGradient id="paint0_linear_1777_10156" x1="-2.57045e-07" y1="138" x2="140.965" y2="3.09775" gradientUnits="userSpaceOnUse">
<stop/>
<stop offset="1" stop-opacity="0"/>
</linearGradient>
<linearGradient id="paint1_linear_1777_10156" x1="0.355907" y1="164.594" x2="82.8228" y2="81.1711" gradientUnits="userSpaceOnUse">
<stop stop-opacity="0.24"/>
<stop offset="1" stop-opacity="0.1"/>
</linearGradient>
<clipPath id="clip0_1777_10156">
<rect width="138" height="138" rx="6" fill="white"/>
</clipPath>
</defs>
</svg>
