<svg width="138" height="138" viewBox="0 0 138 138" fill="none" xmlns="http://www.w3.org/2000/svg">
<g clip-path="url(#clip0_2152_5615)">
<rect width="138" height="138" fill="#40937F"/>
<rect width="138" height="138" fill="url(#paint0_linear_2152_5615)" fill-opacity="0.15" style="mix-blend-mode:multiply"/>
<path style="mix-blend-mode:multiply" fill-rule="evenodd" clip-rule="evenodd" d="M0 130V132C0 135.314 2.68629 138 6 138H132C135.314 138 138 135.314 138 132V130C138 133.314 135.314 136 132 136H6C2.68629 136 0 133.314 0 130ZM6 0C3.10051 0 0.681376 2.05669 0.121899 4.79079C0.681379 2.0567 3.10051 7.62939e-06 6 7.62939e-06L132 0C135.314 7.62939e-06 138 2.6863 138 6C138 2.68629 135.314 0 132 0H6Z" fill="black" fill-opacity="0.3"/>
<g style="mix-blend-mode:screen">
<path fill-rule="evenodd" clip-rule="evenodd" d="M137.936 132.881C137.51 135.777 135.014 138 132 138L6 138L132 138C135.014 138 137.51 135.777 137.936 132.881ZM1.11231e-05 7.99996C1.14067e-05 4.68625 2.68629 1.99996 6.00001 1.99996L132 1.99997C135.311 1.99997 137.995 4.68103 138 7.9903L138 6C138 2.68629 135.314 -2.39947e-07 132 -5.35939e-07L6.00001 -1.17907e-05C2.68631 -1.20867e-05 1.15778e-05 2.68628 1.12943e-05 5.99999L1.11231e-05 7.99996Z" fill="white" fill-opacity="0.2" style="mix-blend-mode:multiply"/>
</g>
<rect x="-1" width="26" height="12" fill="#005BBB"/>
<rect x="-1" y="12" width="26" height="12" fill="#FFD500"/>
<path d="M-4 64.5L26 45.5L69.5 28.5L105.41 52.1122L107.5 49.5L106 52.5L105.41 52.1122L103.5 54.5L105.175 66.5L103.5 77.5L101.41 85.4116L105.175 90.2876H102.5L114 98L51.5 190H-4V64.5Z" fill="url(#paint1_linear_2152_5615)"/>
<path d="M15.2926 132.727C13.1508 132.727 11.2295 132.336 9.52874 131.554C7.82793 130.74 6.47358 129.648 5.46569 128.28C4.4893 126.912 3.95386 125.397 3.85938 123.736H10.5209C10.6469 124.778 11.1338 125.775 11.9843 126.459C12.8662 127.143 14.0012 127.589 15.2926 127.589C16.5524 127.589 17.3876 127.363 18.0431 126.767C18.6987 126.171 18.9768 125.657 19.0761 124.835C19.1854 123.931 18.8775 123.212 17.9383 122.612C17.0879 122.156 15.7178 121.667 13.828 121.146C11.8752 120.658 10.2689 120.153 9.00905 119.631C7.78068 119.11 6.7098 118.312 5.79641 117.237C4.91451 116.162 4.47356 114.713 4.47356 112.888C4.47356 111.39 4.88301 110.022 5.70192 108.784C6.55232 107.546 7.74919 106.569 9.29251 105.852C10.8673 105.135 12.7099 104.777 14.8201 104.777C17.9383 104.777 20.4265 105.591 22.2848 107.22C24.1431 108.816 25.1667 110.983 25.3557 113.719H19.0249C18.9304 112.644 18.473 111.685 17.6856 111.066C16.9297 110.414 15.878 109.915 14.5866 109.915C13.3897 109.915 12.5618 110.137 11.9644 110.675C11.3345 111.131 10.991 111.895 10.991 112.71C10.991 113.622 11.3398 114.403 12.2217 114.892C13.1036 115.348 14.4737 115.82 16.332 116.309C18.2218 116.797 19.7808 117.302 21.0092 117.824C22.2376 118.345 23.2927 119.159 24.1746 120.267C25.088 121.342 25.5604 122.775 25.5919 124.567C25.5919 126.13 25.1667 127.531 24.3163 128.769C23.4974 130.007 22.3006 130.984 20.7257 131.701C19.1824 132.385 17.3714 132.727 15.2926 132.727Z" fill="white"/>
<ellipse cx="31.4539" cy="128.194" rx="4.39535" ry="4.53237" fill="white"/>
<g filter="url(#filter0_d_2152_5615)">
<path d="M109.898 43.1472L72.0588 27.5073C71.2454 27.1724 70.3736 27 69.4931 27C68.6125 27 67.7407 27.1724 66.9273 27.5073L29.1023 43.1472C26.627 44.1825 25 46.5844 25 49.2624V96.5687C25 97.1761 25.5006 97.673 26.1125 97.673H37.2375C37.8494 97.673 38.35 97.1761 38.35 96.5687V55.7907C38.35 53.3612 40.3803 51.3734 42.8834 51.3734H96.1166C98.6197 51.3734 100.65 53.3612 100.65 55.7907V96.5687C100.65 97.1761 101.151 97.673 101.763 97.673H112.888C113.499 97.673 114 97.1761 114 96.5687V49.2624C114 46.5844 112.373 44.1825 109.898 43.1472Z" fill="white"/>
<path d="M67.1034 66.0433H45.5078V70.8423H67.1034V66.0433ZM67.1034 85.2393H45.5078V90.0384H67.1034V85.2393ZM79.9168 75.6413L71.4225 67.147L74.8058 63.7637L79.8928 68.8507L90.0667 58.6768L93.498 62.0601L79.9168 75.6413ZM79.9168 94.8374L71.4225 86.3431L74.8058 82.9598L79.8928 88.0468L90.0667 77.8728L93.498 81.2561L79.9168 94.8374Z" fill="white"/>
</g>
</g>
<defs>
<filter id="filter0_d_2152_5615" x="25" y="27" width="89" height="72.6731" filterUnits="userSpaceOnUse" color-interpolation-filters="sRGB">
<feFlood flood-opacity="0" result="BackgroundImageFix"/>
<feColorMatrix in="SourceAlpha" type="matrix" values="0 0 0 0 0 0 0 0 0 0 0 0 0 0 0 0 0 0 127 0" result="hardAlpha"/>
<feOffset dy="2"/>
<feComposite in2="hardAlpha" operator="out"/>
<feColorMatrix type="matrix" values="0 0 0 0 0 0 0 0 0 0 0 0 0 0 0 0 0 0 0.5 0"/>
<feBlend mode="normal" in2="BackgroundImageFix" result="effect1_dropShadow_2152_5615"/>
<feBlend mode="normal" in="SourceGraphic" in2="effect1_dropShadow_2152_5615" result="shape"/>
</filter>
<linearGradient id="paint0_linear_2152_5615" x1="-2.57045e-07" y1="138" x2="140.965" y2="3.09775" gradientUnits="userSpaceOnUse">
<stop/>
<stop offset="1" stop-opacity="0"/>
</linearGradient>
<linearGradient id="paint1_linear_2152_5615" x1="1.90716" y1="163.697" x2="81.0449" y2="86.175" gradientUnits="userSpaceOnUse">
<stop stop-opacity="0.24"/>
<stop offset="1" stop-opacity="0.1"/>
</linearGradient>
<clipPath id="clip0_2152_5615">
<rect width="138" height="138" rx="6" fill="white"/>
</clipPath>
</defs>
</svg>
