<svg width="138" height="138" viewBox="0 0 138 138" fill="none" xmlns="http://www.w3.org/2000/svg">
<g clip-path="url(#clip0_1316_2616)">
<rect width="138" height="138" fill="#7795A2"/>
<rect width="138" height="138" fill="url(#paint0_linear_1316_2616)" fill-opacity="0.15" style="mix-blend-mode:multiply"/>
<path style="mix-blend-mode:multiply" fill-rule="evenodd" clip-rule="evenodd" d="M0 130V132C0 135.314 2.68629 138 6 138H132C135.314 138 138 135.314 138 132V130C138 133.314 135.314 136 132 136H6C2.68629 136 0 133.314 0 130ZM6 0C3.10051 0 0.681376 2.05669 0.121899 4.79079C0.681379 2.0567 3.10051 7.62939e-06 6 7.62939e-06L132 0C135.314 7.62939e-06 138 2.6863 138 6C138 2.68629 135.314 0 132 0H6Z" fill="black" fill-opacity="0.3"/>
<g style="mix-blend-mode:screen">
<path fill-rule="evenodd" clip-rule="evenodd" d="M137.936 132.881C137.51 135.777 135.014 138 132 138L6 138L132 138C135.014 138 137.51 135.777 137.936 132.881ZM1.11232e-05 7.99996C1.14067e-05 4.68625 2.68629 1.99996 6.00001 1.99996L132 1.99997C135.311 1.99997 137.995 4.68103 138 7.9903L138 6C138 2.68629 135.314 -2.39948e-07 132 -5.3594e-07L6.00001 -1.17907e-05C2.68631 -1.20867e-05 1.15778e-05 2.68628 1.12943e-05 5.99999L1.11232e-05 7.99996Z" fill="white" fill-opacity="0.2" style="mix-blend-mode:multiply"/>
</g>
<rect x="-1" width="26" height="12" fill="#005BBB"/>
<rect x="-1" y="12" width="26" height="12" fill="#FFD500"/>
<path d="M-19 77L32 33L96.5 44L103.5 70L106 107L81.5 147L96.5 146L71.0385 151.898H-8.319L-19 77Z" fill="url(#paint1_linear_1316_2616)"/>
<g filter="url(#filter0_d_1316_2616)">
<path fill-rule="evenodd" clip-rule="evenodd" d="M35 31C32.7909 31 31 32.7909 31 35V103C31 105.209 32.7909 107 35 107H103C105.209 107 107 105.209 107 103V35C107 32.7909 105.209 31 103 31H35ZM41 53C41 60.7322 47.2678 67 55 67C62.7322 67 69 60.7322 69 53C69 45.2678 62.7322 39 55 39C47.2678 39 41 45.2678 41 53ZM50.1 58.6V55.8H57.8C57.9857 55.8 58.1637 55.7262 58.295 55.595C58.4263 55.4637 58.5 55.2857 58.5 55.1C58.5 54.9143 58.4263 54.7363 58.295 54.605C58.1637 54.4737 57.9857 54.4 57.8 54.4H52.2C51.2717 54.4 50.3815 54.0312 49.7251 53.3749C49.0687 52.7185 48.7 51.8283 48.7 50.9C48.7 49.9717 49.0687 49.0815 49.7251 48.4251C50.3815 47.7687 51.2717 47.4 52.2 47.4H53.6V44.6H56.4V47.4H59.9V50.2H52.2C52.0143 50.2 51.8363 50.2738 51.705 50.405C51.5737 50.5363 51.5 50.7143 51.5 50.9C51.5 51.0857 51.5737 51.2637 51.705 51.395C51.8363 51.5263 52.0143 51.6 52.2 51.6H57.8C58.7283 51.6 59.6185 51.9688 60.2749 52.6251C60.9313 53.2815 61.3 54.1717 61.3 55.1C61.3 56.0283 60.9313 56.9185 60.2749 57.5749C59.6185 58.2313 58.7283 58.6 57.8 58.6H56.4V61.4H53.6V58.6H50.1ZM98 53.5L86 42.6747V64.3253L98 53.5ZM39 84.5L51 95.3253L51 73.6747L39 84.5ZM85 49H71V57H85V49ZM66 89H52V81H66V89ZM84.5 98C76.4916 98 70 91.7322 70 84C70 76.2678 76.4916 70 84.5 70C92.5084 70 99 76.2678 99 84C99 91.7322 92.5084 98 84.5 98ZM79.425 86.8V89.6H83.05V92.4H85.95V89.6H87.4C88.3614 89.6 89.2834 89.2313 89.9633 88.5749C90.6431 87.9185 91.025 87.0283 91.025 86.1C91.025 85.1717 90.6431 84.2815 89.9633 83.6251C89.2834 82.9688 88.3614 82.6 87.4 82.6H81.6C81.4077 82.6 81.2233 82.5262 81.0873 82.395C80.9514 82.2637 80.875 82.0857 80.875 81.9C80.875 81.7143 80.9514 81.5363 81.0873 81.405C81.2233 81.2738 81.4077 81.2 81.6 81.2H89.575V78.4H85.95V75.6H83.05V78.4H81.6C80.6386 78.4 79.7166 78.7687 79.0367 79.4251C78.3569 80.0815 77.975 80.9717 77.975 81.9C77.975 82.8283 78.3569 83.7185 79.0367 84.3749C79.7166 85.0312 80.6386 85.4 81.6 85.4H87.4C87.5923 85.4 87.7767 85.4737 87.9127 85.605C88.0486 85.7363 88.125 85.9143 88.125 86.1C88.125 86.2857 88.0486 86.4637 87.9127 86.595C87.7767 86.7262 87.5923 86.8 87.4 86.8H79.425Z" fill="white"/>
</g>
<path d="M15.2936 132.727C13.1518 132.727 11.2305 132.336 9.52971 131.554C7.82891 130.74 6.47456 129.648 5.46667 128.28C4.49028 126.912 3.95484 125.397 3.86035 123.736H10.5219C10.6478 124.778 11.1348 125.775 11.9852 126.459C12.8671 127.143 14.0022 127.589 15.2936 127.589C16.5534 127.589 17.3886 127.363 18.0441 126.767C18.6997 126.171 18.9778 125.657 19.0771 124.835C19.1864 123.931 18.8785 123.212 17.9393 122.612C17.0889 122.156 15.7188 121.667 13.829 121.146C11.8762 120.658 10.2699 120.153 9.01002 119.631C7.78166 119.11 6.71078 118.312 5.79738 117.237C4.91548 116.162 4.47453 114.713 4.47453 112.888C4.47453 111.39 4.88399 110.022 5.70289 108.784C6.5533 107.546 7.75016 106.569 9.29349 105.852C10.8683 105.135 12.7109 104.777 14.8211 104.777C17.9393 104.777 20.4275 105.591 22.2858 107.22C24.1441 108.816 25.1677 110.983 25.3567 113.719H19.0259C18.9314 112.644 18.474 111.685 17.6866 111.066C16.9306 110.414 15.8789 109.915 14.5876 109.915C13.3907 109.915 12.5628 110.137 11.9654 110.675C11.3354 111.131 10.992 111.895 10.992 112.71C10.992 113.622 11.3408 114.403 12.2227 114.892C13.1046 115.348 14.4747 115.82 16.333 116.309C18.2227 116.797 19.7818 117.302 21.0102 117.824C22.2385 118.345 23.2937 119.159 24.1756 120.267C25.089 121.342 25.5614 122.775 25.5929 124.567C25.5929 126.13 25.1677 127.531 24.3173 128.769C23.4984 130.007 22.3015 130.984 20.7267 131.701C19.1834 132.385 17.3723 132.727 15.2936 132.727Z" fill="white"/>
<ellipse cx="31.4535" cy="128.194" rx="4.39535" ry="4.53237" fill="white"/>
</g>
<defs>
<filter id="filter0_d_1316_2616" x="31" y="31" width="76" height="78" filterUnits="userSpaceOnUse" color-interpolation-filters="sRGB">
<feFlood flood-opacity="0" result="BackgroundImageFix"/>
<feColorMatrix in="SourceAlpha" type="matrix" values="0 0 0 0 0 0 0 0 0 0 0 0 0 0 0 0 0 0 127 0" result="hardAlpha"/>
<feOffset dy="2"/>
<feComposite in2="hardAlpha" operator="out"/>
<feColorMatrix type="matrix" values="0 0 0 0 0 0 0 0 0 0 0 0 0 0 0 0 0 0 0.5 0"/>
<feBlend mode="normal" in2="BackgroundImageFix" result="effect1_dropShadow_1316_2616"/>
<feBlend mode="normal" in="SourceGraphic" in2="effect1_dropShadow_1316_2616" result="shape"/>
</filter>
<linearGradient id="paint0_linear_1316_2616" x1="-2.57045e-07" y1="138" x2="140.965" y2="3.09775" gradientUnits="userSpaceOnUse">
<stop/>
<stop offset="1" stop-opacity="0"/>
</linearGradient>
<linearGradient id="paint1_linear_1316_2616" x1="-0.276005" y1="152.434" x2="78.0091" y2="59.1357" gradientUnits="userSpaceOnUse">
<stop stop-opacity="0.5"/>
<stop offset="1" stop-opacity="0"/>
</linearGradient>
<clipPath id="clip0_1316_2616">
<rect width="138" height="138" rx="6" fill="white"/>
</clipPath>
</defs>
</svg>
