<svg width="138" height="138" viewBox="0 0 138 138" fill="none" xmlns="http://www.w3.org/2000/svg">
<g clip-path="url(#clip0_1777_10168)">
<rect width="138" height="138" fill="#1E845F"/>
<rect width="138" height="138" fill="url(#paint0_linear_1777_10168)" fill-opacity="0.15" style="mix-blend-mode:multiply"/>
<path style="mix-blend-mode:multiply" fill-rule="evenodd" clip-rule="evenodd" d="M0 130V132C0 135.314 2.68629 138 6 138H132C135.314 138 138 135.314 138 132V130C138 133.314 135.314 136 132 136H6C2.68629 136 0 133.314 0 130ZM6 0C3.10051 0 0.681376 2.05669 0.121899 4.79079C0.681379 2.0567 3.10051 7.62939e-06 6 7.62939e-06L132 0C135.314 7.62939e-06 138 2.6863 138 6C138 2.68629 135.314 0 132 0H6Z" fill="black" fill-opacity="0.3"/>
<g style="mix-blend-mode:screen">
<path fill-rule="evenodd" clip-rule="evenodd" d="M137.936 132.881C137.51 135.777 135.014 138 132 138L6 138L132 138C135.014 138 137.51 135.777 137.936 132.881ZM1.11232e-05 7.99996C1.14067e-05 4.68625 2.68629 1.99996 6.00001 1.99996L132 1.99997C135.311 1.99997 137.995 4.68103 138 7.9903L138 6C138 2.68629 135.314 -2.39948e-07 132 -5.3594e-07L6.00001 -1.17907e-05C2.68631 -1.20867e-05 1.15778e-05 2.68628 1.12943e-05 5.99999L1.11232e-05 7.99996Z" fill="white" fill-opacity="0.2" style="mix-blend-mode:multiply"/>
</g>
<rect x="-1" width="26" height="12" fill="#005BBB"/>
<rect x="-1" y="12" width="26" height="12" fill="#FFD500"/>
<path d="M-4.05884 61.0951L43.705 31.6073L63.7047 26L100.41 27.994L113 39.2104V50.6761V63.1388L109.515 80.8358L100.41 88.4116L104.175 93.2876L93.5623 110.109L34.3915 193H-5L-4.05884 61.0951Z" fill="url(#paint1_linear_1777_10168)"/>
<g filter="url(#filter0_d_1777_10168)">
<path fill-rule="evenodd" clip-rule="evenodd" d="M22.9263 91.9893C22.9263 81.8952 31.1096 73.7119 41.2037 73.7119C51.2978 73.7119 59.4811 81.8952 59.4811 91.9893C59.4811 102.083 51.2978 110.267 41.2037 110.267C31.1096 110.267 22.9263 102.083 22.9263 91.9893ZM36.2189 91.9893C36.2189 91.7069 36.2355 91.431 36.2704 91.1585H41.2037C41.6444 91.1585 42.067 90.9835 42.3786 90.6719C42.6902 90.3603 42.8653 89.9376 42.8653 89.497C42.8653 89.0563 42.6902 88.6336 42.3786 88.322C42.067 88.0104 41.6444 87.8354 41.2037 87.8354H37.6761C38.2984 87.0569 39.088 86.4286 39.9863 85.9971C40.8847 85.5656 41.8687 85.342 42.8653 85.343C44.364 85.343 45.7415 85.8365 46.8531 86.6723C47.2056 86.9367 47.6488 87.0502 48.085 86.9879C48.5212 86.9256 48.9149 86.6925 49.1793 86.3399C49.4437 85.9874 49.5572 85.5443 49.4949 85.108C49.4326 84.6718 49.1995 84.2781 48.847 84.0137C47.6558 83.12 46.2795 82.5044 44.8192 82.2121C43.359 81.9199 41.8518 81.9585 40.4084 82.325C38.965 82.6916 37.622 83.3768 36.4781 84.3303C35.3342 85.2839 34.4184 86.4815 33.798 87.8354H32.8958C32.4551 87.8354 32.0325 88.0104 31.7209 88.322C31.4092 88.6336 31.2342 89.0563 31.2342 89.497C31.2342 89.9376 31.4092 90.3603 31.7209 90.6719C32.0325 90.9835 32.4551 91.1585 32.8958 91.1585H32.929C32.8834 91.7115 32.8834 92.2672 32.929 92.8201H32.8958C32.4551 92.8201 32.0325 92.9952 31.7209 93.3068C31.4092 93.6184 31.2342 94.041 31.2342 94.4817C31.2342 94.9224 31.4092 95.345 31.7209 95.6566C32.0325 95.9682 32.4551 96.1433 32.8958 96.1433H33.7997C34.4201 97.4971 35.3359 98.6948 36.4798 99.6483C37.6237 100.602 38.9667 101.287 40.4101 101.654C41.8535 102.02 43.3606 102.059 44.8209 101.767C46.2812 101.474 47.6574 100.859 48.8486 99.9649C49.2012 99.7003 49.4342 99.3065 49.4963 98.8701C49.5585 98.4336 49.4447 97.9904 49.1801 97.6379C48.9155 97.2853 48.5216 97.0524 48.0852 96.9902C47.6488 96.928 47.2056 97.0418 46.8531 97.3064C45.7415 98.1422 44.364 98.6357 42.8653 98.6357C41.8686 98.6367 40.8846 98.4132 39.9862 97.9817C39.0879 97.5503 38.2983 96.9219 37.6761 96.1433H41.2037C41.6444 96.1433 42.067 95.9682 42.3786 95.6566C42.6902 95.345 42.8653 94.9224 42.8653 94.4817C42.8653 94.041 42.6902 93.6184 42.3786 93.3068C42.067 92.9952 41.6444 92.8201 41.2037 92.8201H36.2704C36.2361 92.5445 36.2189 92.2671 36.2189 91.9893Z" fill="white"/>
<path d="M102.723 25.5662C99.1078 25.5662 95.574 26.6381 92.5683 28.6465C89.5626 30.6548 87.22 33.5093 85.8366 36.8491C84.4532 40.1889 84.0913 43.8638 84.7965 47.4093C85.5018 50.9548 87.2425 54.2115 89.7987 56.7677C92.3548 59.3238 95.6115 61.0645 99.157 61.7698C102.702 62.475 106.377 62.1131 109.717 60.7297C113.057 59.3463 115.911 57.0037 117.92 53.998C119.928 50.9923 121 47.4585 121 43.8436C120.995 38.9977 119.068 34.3517 115.641 30.9251C112.215 27.4986 107.569 25.5713 102.723 25.5662ZM104.832 52.2793H104.129V53.6853C104.129 54.0581 103.981 54.4157 103.717 54.6794C103.453 54.9431 103.096 55.0912 102.723 55.0912C102.35 55.0912 101.992 54.9431 101.729 54.6794C101.465 54.4157 101.317 54.0581 101.317 53.6853V52.2793H98.5049C98.132 52.2793 97.7744 52.1312 97.5107 51.8675C97.247 51.6038 97.0989 51.2462 97.0989 50.8733C97.0989 50.5005 97.247 50.1429 97.5107 49.8792C97.7744 49.6155 98.132 49.4674 98.5049 49.4674H104.832C105.391 49.4674 105.927 49.2452 106.323 48.8497C106.718 48.4542 106.941 47.9178 106.941 47.3585C106.941 46.7991 106.718 46.2627 106.323 45.8672C105.927 45.4717 105.391 45.2495 104.832 45.2495H100.614C99.3087 45.2495 98.0571 44.7311 97.1342 43.8082C96.2114 42.8854 95.693 41.6338 95.693 40.3287C95.693 39.0236 96.2114 37.772 97.1342 36.8491C98.0571 35.9263 99.3087 35.4078 100.614 35.4078H101.317V34.0019C101.317 33.629 101.465 33.2714 101.729 33.0077C101.992 32.7441 102.35 32.5959 102.723 32.5959C103.096 32.5959 103.453 32.7441 103.717 33.0077C103.981 33.2714 104.129 33.629 104.129 34.0019V35.4078H106.941C107.313 35.4078 107.671 35.556 107.935 35.8196C108.198 36.0833 108.347 36.4409 108.347 36.8138C108.347 37.1867 108.198 37.5443 107.935 37.808C107.671 38.0716 107.313 38.2198 106.941 38.2198H100.614C100.054 38.2198 99.5181 38.4419 99.1226 38.8374C98.7271 39.2329 98.5049 39.7694 98.5049 40.3287C98.5049 40.888 98.7271 41.4244 99.1226 41.8199C99.5181 42.2154 100.054 42.4376 100.614 42.4376H104.832C106.137 42.4376 107.388 42.9561 108.311 43.8789C109.234 44.8017 109.753 46.0534 109.753 47.3585C109.753 48.6635 109.234 49.9152 108.311 50.838C107.388 51.7609 106.137 52.2793 104.832 52.2793Z" fill="white"/>
<path fill-rule="evenodd" clip-rule="evenodd" d="M27.3838 65.2417C27.3838 41.3607 46.7445 22 70.6255 22C77.7896 22 84.547 23.7424 90.4969 26.8265C88.6814 28.1332 87.0836 29.7231 85.768 31.5316C84.5243 31.589 83.2742 31.9255 82.5501 32.9791C81.7692 34.1187 80.8126 34.4201 80.0884 34.6483C79.643 34.7886 79.2855 34.9013 79.1109 35.1642C78.9973 35.3345 78.8696 35.6453 78.7228 36.0028C78.2755 37.0917 77.6501 38.6142 76.6995 37.923C75.4397 37.0034 72.7991 33.7545 74.9828 34.6886C77.1593 35.6226 79.5708 34.5891 77.6191 32.2901C76.5143 30.9887 75.3748 30.6809 74.4476 30.4305C73.7358 30.2382 73.149 30.0796 72.7991 29.5313C71.9962 28.2657 69.014 26.6571 66.9471 29.8758C66.1261 31.1535 65.3368 32.577 64.6127 33.8829C63.5136 35.8651 62.5647 37.5764 61.8835 38.096C61.7671 38.1843 61.6373 38.2806 61.4983 38.3837C60.286 39.2828 58.38 40.6964 58.6864 41.8292C58.7649 42.1185 58.8313 42.5039 58.9023 42.9153C59.1416 44.3034 59.432 45.9878 60.406 45.2784C61.6687 44.3588 62.473 44.0143 62.9328 44.8186C63.0949 45.1031 63.1854 45.517 63.2753 45.928C63.4397 46.6794 63.602 47.4214 64.1954 47.3468C64.1954 47.3468 66.2581 45.8536 66.3719 44.588C66.4147 44.125 66.226 43.7237 66.0318 43.3106C65.6957 42.5959 65.3431 41.846 66.1442 40.6804C66.2123 40.5812 66.2837 40.4769 66.3578 40.3688C67.658 38.4701 69.7859 35.3629 69.2432 37.0539C69.1292 37.408 68.9881 37.7914 68.8423 38.1874C68.2531 39.7887 67.5875 41.5975 68.3236 42.5196C68.8116 43.13 70.4292 42.9956 71.4972 42.9068C72.4418 42.8283 72.9565 42.7855 71.8795 43.3254C69.5862 44.4741 68.4389 45.2799 67.9805 46.7732L67.9698 46.808C67.5153 48.2871 67.1688 49.4151 66.0289 48.8444C65.1049 48.3819 64.0355 48.4405 63.2939 48.4812C63.1134 48.4911 62.9523 48.5 62.8175 48.5C62.5179 48.5 62.3055 47.9998 62.0855 47.4818C61.7996 46.8086 61.5009 46.1051 60.9811 46.4301C60.5281 46.7132 60.606 47.3219 60.6769 47.8756C60.7496 48.4439 60.815 48.9542 60.2907 48.9943C59.6882 49.0415 59.3982 49.4526 59.0334 49.9696C58.7733 50.3382 58.4753 50.7607 57.9989 51.1435C57.7157 51.3708 57.4045 51.6399 57.0807 51.9198C56.0927 52.774 54.9886 53.7286 54.2124 53.9023C53.7354 54.0079 54.0389 54.3092 54.4599 54.7271C54.9523 55.2159 55.6054 55.8643 55.3583 56.5458C54.9811 57.5827 53.3712 57.6924 52.3616 57.7612C52.1404 57.7763 51.9481 57.7894 51.8038 57.8099C51.3522 57.8746 51.3714 58.4465 51.3939 59.1187C51.4115 59.6438 51.4312 60.2302 51.2301 60.684C50.7689 61.7189 51.6885 62.7524 53.0636 62.7524C54.4401 62.7524 55.932 62.4094 56.0487 61.1438C56.1611 59.8797 57.5391 57.6975 58.4573 58.1558C58.8973 58.3758 59.5943 58.199 60.2528 58.032C60.9663 57.851 61.6347 57.6815 61.882 58.0405C62.0562 58.2933 62.5199 58.7771 63.0267 59.3058C63.9041 60.2213 64.9106 61.2714 64.7662 61.4898C64.6882 61.6064 64.4789 61.7626 64.2585 61.9272C63.8279 62.2488 63.3547 62.6023 63.7342 62.7539C63.7342 62.7539 64.0989 63.4774 64.4837 63.3246C64.6882 63.2436 64.9696 62.6675 65.2398 62.1143C65.4742 61.6343 65.7002 61.1717 65.8602 61.0645C66.2047 60.8339 66.32 59.8379 65.6671 59.3781L65.6579 59.3716C64.9957 58.9037 62.5735 57.1921 63.1058 56.3901C63.5847 55.6685 64.7401 57.0373 65.3602 57.772C65.4324 57.8576 65.4974 57.9346 65.5532 57.9987C65.6378 58.0958 65.73 58.1938 65.8255 58.2953C66.3341 58.8356 66.9359 59.475 66.9687 60.6047C66.9924 61.4221 67.2856 61.7132 67.5369 61.9629C67.6982 62.1231 67.8423 62.2662 67.8868 62.5203C68.0007 63.1733 68.2688 63.4443 69.0342 63.3463C69.7981 63.2497 70.1051 61.5633 69.6843 61.1424C69.2648 60.7201 69.2648 59.799 70.0662 59.799C70.8676 59.799 71.8622 59.11 71.9011 58.6877C71.94 58.2668 72.7054 55.6608 73.2776 55.6608C73.807 55.6608 74.1731 56.5406 74.4054 57.099C74.4249 57.1458 74.4434 57.1903 74.461 57.2319C74.6931 57.7666 76.146 56.8096 75.9168 56.2734C75.6862 55.7357 76.0307 55.5455 76.453 55.5455C76.6652 55.5455 76.6819 55.8297 76.7011 56.1553C76.7198 56.4734 76.7408 56.831 76.9489 57.0013C77.0085 57.05 77.0983 57.1168 77.2068 57.1976C77.8693 57.6908 79.2285 58.7028 78.6699 59.2614C78.0227 59.9129 76.9489 59.5295 76.2238 58.9544C75.4974 58.3807 73.6236 58.7252 73.1249 59.3003C72.629 59.874 72.2067 60.1421 71.3664 60.181C70.5231 60.2185 70.6385 61.7521 71.3664 62.4022C71.7602 62.7569 72.234 62.7496 72.7012 62.7424C73.094 62.7364 73.482 62.7304 73.8138 62.9398C74.1636 63.1612 74.6105 63.0274 75.0016 62.9104C75.4228 62.7843 75.7792 62.6776 75.8793 63.0551C76.0711 63.783 75.764 65.9653 75.0361 66.0445C74.922 66.0564 74.7696 66.0797 74.5873 66.1076C73.6135 66.2566 71.7863 66.5362 70.3877 65.8903C68.7272 65.1235 67.1229 64.8165 66.9687 65.6222C66.9605 65.6648 66.9527 65.7067 66.945 65.7478C66.8074 66.486 66.7164 66.974 65.6296 66.2982C64.4823 65.5833 63.4877 65.161 62.7598 65.161C62.0348 65.161 61.9959 63.9358 62.1487 62.8634C62.3029 61.7896 60.3902 62.173 59.2803 62.4411C58.9903 62.5111 58.6168 62.6179 58.1988 62.7374C57.0174 63.0753 55.48 63.5149 54.4632 63.5149C53.0823 63.5149 52.3948 63.8205 52.1642 64.4345C52.0739 64.6773 51.8093 64.8239 51.5204 64.9839C51.0802 65.2278 50.5834 65.503 50.5599 66.1973C50.554 66.3783 50.5547 66.539 50.5554 66.6832C50.559 67.4561 50.5603 67.7567 49.5279 68.1648C48.7557 68.4713 48.3193 69.4687 47.9481 70.3169C47.731 70.8131 47.5362 71.2583 47.3096 71.4844C47.1998 71.5949 47.1492 71.7327 47.1367 71.8887C45.2556 71.3344 43.2644 71.0369 41.2038 71.0369C36.4394 71.0369 32.0465 72.6271 28.5268 75.3056C27.7793 72.1235 27.3838 68.8053 27.3838 65.3945L27.3852 65.3181L27.3838 65.2417ZM56.5851 106.216C60.9175 107.686 65.5596 108.483 70.3877 108.483L70.4799 108.481L70.6255 108.483C94.5064 108.483 113.867 89.1226 113.867 65.2417C113.867 64.0423 113.818 62.8544 113.723 61.6797C112.834 62.2291 111.901 62.7138 110.93 63.1275C110.966 63.8276 110.984 64.5325 110.984 65.2417C110.984 68.6924 110.549 72.0407 109.736 75.2363C109.61 75.1494 109.415 75.2118 109.202 75.28C108.778 75.4154 108.283 75.5735 108.12 74.628C107.813 72.8638 105.824 71.6386 104.753 72.4818C103.682 73.325 100.622 75.7768 100.471 77.3105C100.317 78.8427 99.0151 80.6819 98.4054 79.3817C97.7914 78.0787 95.9579 74.0154 96.0329 72.943C96.0642 72.4947 95.9217 72.4883 95.645 72.4757C95.2598 72.4583 94.6145 72.4292 93.816 71.1802C93.0221 69.9437 91.8985 70.0296 90.7229 70.1195C89.858 70.1856 88.965 70.2539 88.1542 69.7994C87.3617 69.3544 86.5298 68.8439 85.751 68.3659C84.6501 67.6904 83.6552 67.0798 83.0272 66.8114C81.9591 66.3501 84.9399 71.1024 85.3233 70.4898C85.5783 70.0839 86.3352 70.4178 86.9506 70.6893C87.264 70.8275 87.5407 70.9496 87.6959 70.9496C88.1557 70.9496 89.378 72.022 88.614 73.0194C87.8501 74.0169 81.0424 78.1594 80.3534 77.0813C80.1703 76.796 79.7521 76.0014 79.2231 74.9966C77.7532 72.2044 75.4285 67.7885 74.9208 68.1648C74.2318 68.6765 79.2061 77.3868 80.0478 77.923C80.8867 78.4607 83.4135 78.0009 84.6358 77.4647C85.861 76.9285 82.1119 83.4436 80.5076 84.2104C78.9019 84.9758 77.6018 87.3526 78.2879 88.425C78.9769 89.4974 79.0533 93.5607 77.6018 94.0983C76.146 94.6331 75.6113 95.4763 76.0696 96.4737C76.4301 97.2584 75.556 98.4729 74.8327 99.4779C74.6392 99.7467 74.4565 100 74.3111 100.227C73.964 100.766 73.115 101.596 72.3274 102.366C71.5485 103.128 70.8295 103.831 70.7149 104.136C70.5208 104.659 68.1043 104.625 66.5875 104.603C66.324 104.599 66.0877 104.596 65.8948 104.596C65.057 104.596 65.173 103.926 65.3195 103.08C65.4 102.615 65.4898 102.097 65.435 101.608C65.3514 100.838 64.9573 100.091 64.6252 99.4627C64.3621 98.9644 64.1378 98.5397 64.1378 98.2351C64.1378 97.5447 63.7529 95.9346 63.2196 95.1693C62.6849 94.401 62.5292 92.9452 63.0654 92.1034C63.603 91.2588 63.9836 88.8084 62.9155 87.7346C61.8431 86.6622 60.6179 84.8215 61.4611 83.3657C62.0649 82.3216 61.3303 82.1057 60.3305 81.8118C60.0135 81.7186 59.6698 81.6176 59.3337 81.4798C61.1283 84.5691 62.1559 88.1591 62.1559 91.989C62.1559 97.4812 60.0427 102.48 56.5851 106.216ZM54.1172 49.1053C53.7742 49.5651 53.0088 51.1146 53.3893 51.5081C53.5781 51.7011 53.2967 51.9746 53.0288 52.2349C52.7504 52.5054 52.4866 52.7617 52.7796 52.8991C53.0509 53.0252 53.5278 52.7781 54.055 52.505C54.6483 52.1976 55.3052 51.8573 55.8037 51.9795C56.7406 52.2101 56.9856 51.7503 57.1009 50.9445C57.1735 50.4391 56.6845 49.8108 56.1979 49.1856C55.9116 48.8177 55.6261 48.4509 55.4563 48.1108C55.2944 47.7875 55.2369 47.2239 55.1759 46.625C55.0629 45.5176 54.9377 44.2897 54.1172 44.2392C53.879 44.2242 53.6351 44.3161 53.3828 44.411C53.1985 44.4804 53.0098 44.5514 52.8157 44.5837C52.3602 44.6601 52.0921 45.2338 52.0532 45.8867C52.036 46.1973 52.2971 46.421 52.5245 46.6159C52.7732 46.8289 52.9815 47.0074 52.7422 47.2272C52.5797 47.3755 52.1947 47.5237 51.7792 47.6838C51.015 47.9781 50.1474 48.3122 50.3696 48.7594C50.402 48.8242 50.435 48.8887 50.4679 48.953C50.7852 49.5729 51.0907 50.1697 50.6766 50.8292C50.2197 51.5571 51.135 51.635 51.9379 51.3669C52.7407 51.0988 53.3158 50.1013 53.2394 49.4513C53.1602 48.7983 54.4632 48.6455 54.1172 49.1053ZM47.2539 35.0597C46.6385 35.4057 45.95 35.7927 45.1475 35.392C44.7122 35.1743 44.0996 35.1541 43.5836 35.2911C43.2865 35.557 42.9999 35.8334 42.7134 36.1099C42.6815 36.1406 42.6497 36.1713 42.6178 36.202C42.6294 36.437 42.7605 36.7051 43.0805 37.002C43.7473 37.6185 43.9986 38.1429 44.1911 38.5446C44.4293 39.0417 44.5776 39.3511 45.3118 39.4149C46.029 39.4772 46.6602 38.9341 47.2339 38.4405C47.7209 38.0214 48.1665 37.638 48.5881 37.691C49.5048 37.8063 48.9628 34.4392 48.013 34.7015C47.7714 34.7689 47.5195 34.9105 47.2539 35.0597ZM82.0051 91.9941C81.7988 92.5531 81.5841 93.1346 81.041 93.2508C80.4208 93.3841 80.4644 93.7474 80.5161 94.1787C80.5539 94.4932 80.5959 94.8438 80.388 95.1678C79.8936 95.9332 79.6572 97.5447 80.388 98.5392C81.1159 99.5352 81.4244 99.6131 82.1898 98.003C82.9537 96.393 84.9428 90.6462 82.8773 90.8754C82.3985 90.9286 82.2057 91.4508 82.0051 91.9941Z" fill="white"/>
<path fill-rule="evenodd" clip-rule="evenodd" d="M113.798 67.7229C110.431 69.2868 106.679 70.1599 102.723 70.1599C88.1888 70.1599 76.4068 58.3779 76.4068 43.8441C76.4068 36.1585 79.7015 29.2424 84.9556 24.4312C86.8678 25.1026 88.7186 25.9046 90.4972 26.8265C85.2119 30.6301 81.7704 36.8352 81.7704 43.8441C81.7704 55.4157 91.151 64.7963 102.723 64.7963C106.757 64.7963 110.526 63.6558 113.723 61.6796C113.819 62.8544 113.868 64.0425 113.868 65.242C113.868 66.0747 113.844 66.9018 113.798 67.7229ZM62.3265 107.688C65.589 103.305 67.5198 97.8729 67.5198 91.9894C67.5198 77.4556 55.7378 65.6736 41.204 65.6736C36.2204 65.6736 31.5603 67.059 27.5879 69.4655C27.78 71.4472 28.1058 73.3896 28.5563 75.2838C32.0711 72.6187 36.4528 71.0373 41.204 71.0373C52.7756 71.0373 62.1562 80.4179 62.1562 91.9894C62.1562 97.458 60.0611 102.437 56.6298 106.168C58.4756 106.799 60.3777 107.309 62.3265 107.688Z" fill="white"/>
</g>
<path d="M15.2936 132.727C13.1518 132.727 11.2305 132.336 9.52971 131.554C7.82891 130.74 6.47456 129.648 5.46667 128.28C4.49028 126.912 3.95484 125.397 3.86035 123.736H10.5219C10.6478 124.778 11.1348 125.775 11.9852 126.459C12.8671 127.143 14.0022 127.589 15.2936 127.589C16.5534 127.589 17.3886 127.363 18.0441 126.767C18.6997 126.171 18.9778 125.657 19.0771 124.835C19.1864 123.931 18.8785 123.212 17.9393 122.612C17.0889 122.156 15.7188 121.667 13.829 121.146C11.8762 120.658 10.2699 120.153 9.01002 119.631C7.78166 119.11 6.71078 118.312 5.79738 117.237C4.91548 116.162 4.47453 114.713 4.47453 112.888C4.47453 111.39 4.88399 110.022 5.70289 108.784C6.5533 107.546 7.75016 106.569 9.29349 105.852C10.8683 105.135 12.7109 104.777 14.8211 104.777C17.9393 104.777 20.4275 105.591 22.2858 107.22C24.1441 108.816 25.1677 110.983 25.3567 113.719H19.0259C18.9314 112.644 18.474 111.685 17.6866 111.066C16.9306 110.414 15.8789 109.915 14.5876 109.915C13.3907 109.915 12.5628 110.137 11.9654 110.675C11.3354 111.131 10.992 111.895 10.992 112.71C10.992 113.622 11.3408 114.403 12.2227 114.892C13.1046 115.348 14.4747 115.82 16.333 116.309C18.2227 116.797 19.7818 117.302 21.0102 117.824C22.2385 118.345 23.2937 119.159 24.1756 120.267C25.089 121.342 25.5614 122.775 25.5929 124.567C25.5929 126.13 25.1677 127.531 24.3173 128.769C23.4984 130.007 22.3015 130.984 20.7267 131.701C19.1834 132.385 17.3723 132.727 15.2936 132.727Z" fill="white"/>
<ellipse cx="31.4535" cy="128.194" rx="4.39535" ry="4.53237" fill="white"/>
</g>
<defs>
<filter id="filter0_d_1777_10168" x="22.9263" y="22" width="98.0737" height="90.2668" filterUnits="userSpaceOnUse" color-interpolation-filters="sRGB">
<feFlood flood-opacity="0" result="BackgroundImageFix"/>
<feColorMatrix in="SourceAlpha" type="matrix" values="0 0 0 0 0 0 0 0 0 0 0 0 0 0 0 0 0 0 127 0" result="hardAlpha"/>
<feOffset dy="2"/>
<feComposite in2="hardAlpha" operator="out"/>
<feColorMatrix type="matrix" values="0 0 0 0 0 0 0 0 0 0 0 0 0 0 0 0 0 0 0.5 0"/>
<feBlend mode="normal" in2="BackgroundImageFix" result="effect1_dropShadow_1777_10168"/>
<feBlend mode="normal" in="SourceGraphic" in2="effect1_dropShadow_1777_10168" result="shape"/>
</filter>
<linearGradient id="paint0_linear_1777_10168" x1="-2.57045e-07" y1="138" x2="140.965" y2="3.09775" gradientUnits="userSpaceOnUse">
<stop/>
<stop offset="1" stop-opacity="0"/>
</linearGradient>
<linearGradient id="paint1_linear_1777_10168" x1="0.90715" y1="166.697" x2="80.0449" y2="89.1751" gradientUnits="userSpaceOnUse">
<stop stop-opacity="0.24"/>
<stop offset="1" stop-opacity="0.1"/>
</linearGradient>
<clipPath id="clip0_1777_10168">
<rect width="138" height="138" rx="6" fill="white"/>
</clipPath>
</defs>
</svg>
