<svg width="138" height="138" viewBox="0 0 138 138" fill="none" xmlns="http://www.w3.org/2000/svg">
<g clip-path="url(#clip0_1316_2653)">
<rect width="138" height="138" fill="#7AA277"/>
<rect width="138" height="138" fill="url(#paint0_linear_1316_2653)" fill-opacity="0.15" style="mix-blend-mode:multiply"/>
<path style="mix-blend-mode:multiply" fill-rule="evenodd" clip-rule="evenodd" d="M0 130V132C0 135.314 2.68629 138 6 138H132C135.314 138 138 135.314 138 132V130C138 133.314 135.314 136 132 136H6C2.68629 136 0 133.314 0 130ZM6 0C3.10051 0 0.681376 2.05669 0.121899 4.79079C0.681379 2.0567 3.10051 7.62939e-06 6 7.62939e-06L132 0C135.314 7.62939e-06 138 2.6863 138 6C138 2.68629 135.314 0 132 0H6Z" fill="black" fill-opacity="0.3"/>
<g style="mix-blend-mode:screen">
<path fill-rule="evenodd" clip-rule="evenodd" d="M137.936 132.881C137.51 135.777 135.014 138 132 138L6 138L132 138C135.014 138 137.51 135.777 137.936 132.881ZM1.11232e-05 7.99996C1.14067e-05 4.68625 2.68629 1.99996 6.00001 1.99996L132 1.99997C135.311 1.99997 137.995 4.68103 138 7.9903L138 6C138 2.68629 135.314 -2.39948e-07 132 -5.3594e-07L6.00001 -1.17907e-05C2.68631 -1.20867e-05 1.15778e-05 2.68628 1.12943e-05 5.99999L1.11232e-05 7.99996Z" fill="white" fill-opacity="0.2" style="mix-blend-mode:multiply"/>
</g>
<rect x="-1" width="26" height="12" fill="#005BBB"/>
<rect x="-1" y="12" width="26" height="12" fill="#FFD500"/>
<path d="M-9 65.9787L45.7413 19L130 27.8738L126.243 65.9787L124.097 107.216L102.629 152H81.7401H-3.43893L-9 65.9787Z" fill="url(#paint1_linear_1316_2653)"/>
<g filter="url(#filter0_d_1316_2653)">
<path d="M87.8333 48.1667H39.5V24H87.8333V48.1667ZM77.4983 67.935C72.5277 67.935 68.5 71.9674 68.5 76.9379C68.5 82.7683 68.5 84.9183 68.5 96.5H25V62.6667C25 60.1029 26.0184 57.6442 27.8313 55.8313C29.6442 54.0185 32.1029 53 34.6667 53H92.6667C95.2304 53 97.6892 54.0185 99.502 55.8313C101.315 57.6442 102.333 60.1029 102.333 62.6667V67.935C99.8099 67.935 86.6597 67.935 77.4983 67.935ZM54 62.6667H34.6667V72.3333H54V62.6667Z" fill="white"/>
</g>
<g filter="url(#filter1_d_1316_2653)">
<path d="M110.636 81.7474H117.318L124 90.8698V104.239H119.468C119.203 106.115 118.276 107.832 116.859 109.074C115.441 110.316 113.627 111 111.75 111C109.873 111 108.059 110.316 106.641 109.074C105.224 107.832 104.297 106.115 104.032 104.239H92.7402C92.4754 106.115 91.5491 107.832 90.1314 109.074C88.7136 110.316 86.8997 111 85.0227 111C83.1458 111 81.3318 110.316 79.9141 109.074C78.4963 107.832 77.57 106.115 77.3052 104.239H75V77.2491C75 76.6526 75.2347 76.0805 75.6524 75.6588C76.07 75.237 76.6366 75 77.2273 75H108.409C109 75 109.566 75.237 109.984 75.6588C110.402 76.0805 110.636 76.6526 110.636 77.2491V81.7474ZM110.636 86.2456V92.993H119.545V92.352L115.073 86.2456H110.636Z" fill="white"/>
</g>
<path d="M15.2936 132.727C13.1518 132.727 11.2305 132.336 9.52971 131.554C7.82891 130.74 6.47456 129.648 5.46667 128.28C4.49028 126.912 3.95484 125.397 3.86035 123.736H10.5219C10.6478 124.778 11.1348 125.774 11.9852 126.458C12.8671 127.143 14.0022 127.589 15.2936 127.589C16.5534 127.589 17.3886 127.363 18.0441 126.767C18.6997 126.171 18.9778 125.657 19.0771 124.835C19.1864 123.931 18.8785 123.211 17.9393 122.612C17.0889 122.156 15.7188 121.667 13.829 121.146C11.8762 120.657 10.2699 120.153 9.01002 119.631C7.78166 119.11 6.71078 118.312 5.79738 117.237C4.91548 116.162 4.47453 114.712 4.47453 112.888C4.47453 111.39 4.88399 110.022 5.70289 108.784C6.5533 107.546 7.75016 106.569 9.29349 105.852C10.8683 105.135 12.7109 104.777 14.8211 104.777C17.9393 104.777 20.4275 105.591 22.2858 107.22C24.1441 108.816 25.1677 110.983 25.3567 113.719H19.0259C18.9314 112.644 18.474 111.685 17.6866 111.066C16.9306 110.414 15.8789 109.915 14.5876 109.915C13.3907 109.915 12.5628 110.137 11.9654 110.675C11.3354 111.131 10.992 111.895 10.992 112.71C10.992 113.622 11.3408 114.403 12.2227 114.892C13.1046 115.348 14.4747 115.82 16.333 116.309C18.2227 116.797 19.7818 117.302 21.0102 117.823C22.2385 118.345 23.2937 119.159 24.1756 120.267C25.089 121.342 25.5614 122.775 25.5929 124.566C25.5929 126.13 25.1677 127.531 24.3173 128.769C23.4984 130.007 22.3015 130.984 20.7267 131.7C19.1834 132.385 17.3723 132.727 15.2936 132.727Z" fill="white"/>
<ellipse cx="31.4535" cy="128.194" rx="4.39535" ry="4.53237" fill="white"/>
</g>
<defs>
<filter id="filter0_d_1316_2653" x="25" y="24" width="77.3335" height="74.5" filterUnits="userSpaceOnUse" color-interpolation-filters="sRGB">
<feFlood flood-opacity="0" result="BackgroundImageFix"/>
<feColorMatrix in="SourceAlpha" type="matrix" values="0 0 0 0 0 0 0 0 0 0 0 0 0 0 0 0 0 0 127 0" result="hardAlpha"/>
<feOffset dy="2"/>
<feComposite in2="hardAlpha" operator="out"/>
<feColorMatrix type="matrix" values="0 0 0 0 0 0 0 0 0 0 0 0 0 0 0 0 0 0 0.5 0"/>
<feBlend mode="normal" in2="BackgroundImageFix" result="effect1_dropShadow_1316_2653"/>
<feBlend mode="normal" in="SourceGraphic" in2="effect1_dropShadow_1316_2653" result="shape"/>
</filter>
<filter id="filter1_d_1316_2653" x="75" y="75" width="49" height="38" filterUnits="userSpaceOnUse" color-interpolation-filters="sRGB">
<feFlood flood-opacity="0" result="BackgroundImageFix"/>
<feColorMatrix in="SourceAlpha" type="matrix" values="0 0 0 0 0 0 0 0 0 0 0 0 0 0 0 0 0 0 127 0" result="hardAlpha"/>
<feOffset dy="2"/>
<feComposite in2="hardAlpha" operator="out"/>
<feColorMatrix type="matrix" values="0 0 0 0 0 0 0 0 0 0 0 0 0 0 0 0 0 0 0.5 0"/>
<feBlend mode="normal" in2="BackgroundImageFix" result="effect1_dropShadow_1316_2653"/>
<feBlend mode="normal" in="SourceGraphic" in2="effect1_dropShadow_1316_2653" result="shape"/>
</filter>
<linearGradient id="paint0_linear_1316_2653" x1="-2.57045e-07" y1="138" x2="140.965" y2="3.09775" gradientUnits="userSpaceOnUse">
<stop/>
<stop offset="1" stop-opacity="0"/>
</linearGradient>
<linearGradient id="paint1_linear_1316_2653" x1="5.19409" y1="152.56" x2="86.498" y2="52.9356" gradientUnits="userSpaceOnUse">
<stop stop-opacity="0.5"/>
<stop offset="1" stop-opacity="0"/>
</linearGradient>
<clipPath id="clip0_1316_2653">
<rect width="138" height="138" rx="6" fill="white"/>
</clipPath>
</defs>
</svg>
