<svg width="138" height="138" viewBox="0 0 138 138" fill="none" xmlns="http://www.w3.org/2000/svg">
<g clip-path="url(#clip0_2250_16979)">
<rect width="138" height="138" fill="#752F34"/>
<rect width="138" height="138" fill="url(#paint0_linear_2250_16979)" fill-opacity="0.15" style="mix-blend-mode:multiply"/>
<path style="mix-blend-mode:multiply" fill-rule="evenodd" clip-rule="evenodd" d="M0 130V132C0 135.314 2.68629 138 6 138H132C135.314 138 138 135.314 138 132V130C138 133.314 135.314 136 132 136H6C2.68629 136 0 133.314 0 130ZM6 0C3.10051 0 0.681376 2.05669 0.121899 4.79079C0.681379 2.0567 3.10051 7.62939e-06 6 7.62939e-06L132 0C135.314 7.62939e-06 138 2.6863 138 6C138 2.68629 135.314 0 132 0H6Z" fill="black" fill-opacity="0.3"/>
<g style="mix-blend-mode:screen">
<path fill-rule="evenodd" clip-rule="evenodd" d="M137.936 132.881C137.51 135.777 135.014 138 132 138L6 138L132 138C135.014 138 137.51 135.777 137.936 132.881ZM1.11232e-05 7.99996C1.14067e-05 4.68625 2.68629 1.99996 6.00001 1.99996L132 1.99997C135.311 1.99997 137.995 4.68103 138 7.9903L138 6C138 2.68629 135.314 -2.39948e-07 132 -5.3594e-07L6.00001 -1.17907e-05C2.68631 -1.20867e-05 1.15778e-05 2.68628 1.12943e-05 5.99999L1.11232e-05 7.99996Z" fill="white" fill-opacity="0.2" style="mix-blend-mode:multiply"/>
</g>
<rect x="-1" width="26" height="12" fill="#005BBB"/>
<rect x="-1" y="12" width="26" height="12" fill="#FFD500"/>
<path d="M-11 66.7224L38.2 26L97.9429 29.6198L112 57.2205L104.469 68.5323L106.478 94.7757L112 102.468L74.849 145H-8.37358L-11 66.7224Z" fill="url(#paint1_linear_2250_16979)"/>
<path d="M15.2936 132.727C13.1518 132.727 11.2305 132.336 9.52971 131.554C7.82891 130.74 6.47456 129.648 5.46667 128.28C4.49028 126.912 3.95484 125.397 3.86035 123.736H10.5219C10.6478 124.778 11.1348 125.775 11.9852 126.459C12.8671 127.143 14.0022 127.589 15.2936 127.589C16.5534 127.589 17.3886 127.363 18.0441 126.767C18.6997 126.171 18.9778 125.657 19.0771 124.835C19.1864 123.931 18.8785 123.212 17.9393 122.612C17.0889 122.156 15.7188 121.667 13.829 121.146C11.8762 120.658 10.2699 120.153 9.01002 119.631C7.78166 119.11 6.71078 118.312 5.79738 117.237C4.91548 116.162 4.47453 114.713 4.47453 112.888C4.47453 111.39 4.88399 110.022 5.70289 108.784C6.5533 107.546 7.75016 106.569 9.29349 105.852C10.8683 105.135 12.7109 104.777 14.8211 104.777C17.9393 104.777 20.4275 105.591 22.2858 107.22C24.1441 108.816 25.1677 110.983 25.3567 113.719H19.0259C18.9314 112.644 18.474 111.685 17.6866 111.066C16.9306 110.414 15.8789 109.915 14.5876 109.915C13.3907 109.915 12.5628 110.137 11.9654 110.675C11.3354 111.131 10.992 111.895 10.992 112.71C10.992 113.622 11.3408 114.403 12.2227 114.892C13.1046 115.348 14.4747 115.82 16.333 116.309C18.2227 116.797 19.7818 117.302 21.0102 117.824C22.2385 118.345 23.2937 119.159 24.1756 120.267C25.089 121.342 25.5614 122.775 25.5929 124.567C25.5929 126.13 25.1677 127.531 24.3173 128.769C23.4984 130.007 22.3015 130.984 20.7267 131.701C19.1834 132.385 17.3723 132.727 15.2936 132.727Z" fill="white"/>
<ellipse cx="31.4535" cy="128.194" rx="4.39535" ry="4.53237" fill="white"/>
<g filter="url(#filter0_d_2250_16979)">
<path d="M49.2702 65L53.6648 78.8139H53.8335L58.2369 65H62.4982L56.2305 83.1818H51.2766L45 65H49.2702Z" fill="white"/>
<path d="M65.4035 83.1818H61.2842L67.5608 65H72.5146L78.7824 83.1818H74.6631L70.1088 69.1548H69.9667L65.4035 83.1818ZM65.146 76.0352H74.8762V79.0359H65.146V76.0352Z" fill="white"/>
<path d="M78.0566 68.1694V65H92.9892V68.1694H87.4228V83.1818H83.623V68.1694H78.0566Z" fill="white"/>
</g>
<g filter="url(#filter1_d_2250_16979)">
<path d="M30 98H38.6667M38.6667 98H99.3333M38.6667 98V51.312M108 98H99.3333M99.3333 98V51.312M38.6667 51.312C38.5046 51.2261 38.3457 51.1354 38.19 51.04L35.85 49.6C34.1958 48.5815 32.9713 47.0689 32.3819 45.3159C31.7925 43.5628 31.8741 41.6761 32.613 39.972L36.487 31.028C37.1305 29.5436 38.241 28.2713 39.6753 27.375C41.1096 26.4788 42.802 25.9999 44.534 26H93.466C95.198 25.9999 96.8904 26.4788 98.3247 27.375C99.759 28.2713 100.87 29.5436 101.513 31.028L105.387 39.972C106.126 41.6761 106.207 43.5628 105.618 45.3159C105.029 47.0689 103.804 48.5815 102.15 49.6L99.81 51.04C99.6543 51.1354 99.4954 51.2261 99.3333 51.312M38.6667 51.312C40.0665 52.0583 41.6646 52.4284 43.2804 52.3803C44.8961 52.3322 46.4651 51.868 47.81 51.04L56 46L64.19 51.04C65.6142 51.9171 67.2879 52.3852 69 52.3852C70.7121 52.3852 72.3858 51.9171 73.81 51.04L82 46L90.19 51.04C91.5349 51.868 93.1039 52.3322 94.7196 52.3803C96.3354 52.4284 97.9335 52.0583 99.3333 51.312" stroke="white" stroke-width="7" stroke-linecap="round" stroke-linejoin="round"/>
</g>
</g>
<defs>
<filter id="filter0_d_2250_16979" x="45" y="65" width="47.9893" height="20.1819" filterUnits="userSpaceOnUse" color-interpolation-filters="sRGB">
<feFlood flood-opacity="0" result="BackgroundImageFix"/>
<feColorMatrix in="SourceAlpha" type="matrix" values="0 0 0 0 0 0 0 0 0 0 0 0 0 0 0 0 0 0 127 0" result="hardAlpha"/>
<feOffset dy="2"/>
<feComposite in2="hardAlpha" operator="out"/>
<feColorMatrix type="matrix" values="0 0 0 0 0 0 0 0 0 0 0 0 0 0 0 0 0 0 0.5 0"/>
<feBlend mode="normal" in2="BackgroundImageFix" result="effect1_dropShadow_2250_16979"/>
<feBlend mode="normal" in="SourceGraphic" in2="effect1_dropShadow_2250_16979" result="shape"/>
</filter>
<filter id="filter1_d_2250_16979" x="26.5" y="22.5" width="85" height="81" filterUnits="userSpaceOnUse" color-interpolation-filters="sRGB">
<feFlood flood-opacity="0" result="BackgroundImageFix"/>
<feColorMatrix in="SourceAlpha" type="matrix" values="0 0 0 0 0 0 0 0 0 0 0 0 0 0 0 0 0 0 127 0" result="hardAlpha"/>
<feOffset dy="2"/>
<feComposite in2="hardAlpha" operator="out"/>
<feColorMatrix type="matrix" values="0 0 0 0 0 0 0 0 0 0 0 0 0 0 0 0 0 0 0.5 0"/>
<feBlend mode="normal" in2="BackgroundImageFix" result="effect1_dropShadow_2250_16979"/>
<feBlend mode="normal" in="SourceGraphic" in2="effect1_dropShadow_2250_16979" result="shape"/>
</filter>
<linearGradient id="paint0_linear_2250_16979" x1="-2.57045e-07" y1="138" x2="140.965" y2="3.09775" gradientUnits="userSpaceOnUse">
<stop/>
<stop offset="1" stop-opacity="0"/>
</linearGradient>
<linearGradient id="paint1_linear_2250_16979" x1="-0.494331" y1="145.485" x2="69.1151" y2="55.6218" gradientUnits="userSpaceOnUse">
<stop stop-opacity="0.5"/>
<stop offset="1" stop-opacity="0"/>
</linearGradient>
<clipPath id="clip0_2250_16979">
<rect width="138" height="138" rx="6" fill="white"/>
</clipPath>
</defs>
</svg>
