<svg width="138" height="138" viewBox="0 0 138 138" fill="none" xmlns="http://www.w3.org/2000/svg">
<g clip-path="url(#clip0_1777_10147)">
<rect width="138" height="138" fill="#7E43AC"/>
<rect width="138" height="138" fill="url(#paint0_linear_1777_10147)" fill-opacity="0.15" style="mix-blend-mode:multiply"/>
<path style="mix-blend-mode:multiply" fill-rule="evenodd" clip-rule="evenodd" d="M0 130V132C0 135.314 2.68629 138 6 138H132C135.314 138 138 135.314 138 132V130C138 133.314 135.314 136 132 136H6C2.68629 136 0 133.314 0 130ZM6 0C3.10051 0 0.681376 2.05669 0.121899 4.79079C0.681379 2.0567 3.10051 7.62939e-06 6 7.62939e-06L132 0C135.314 7.62939e-06 138 2.6863 138 6C138 2.68629 135.314 0 132 0H6Z" fill="black" fill-opacity="0.3"/>
<g style="mix-blend-mode:screen">
<path fill-rule="evenodd" clip-rule="evenodd" d="M137.936 132.881C137.51 135.777 135.014 138 132 138L6 138L132 138C135.014 138 137.51 135.777 137.936 132.881ZM1.11232e-05 8.00002C1.14067e-05 4.68631 2.68629 2.00002 6.00001 2.00002L132 2.00003C135.311 2.00003 137.995 4.68109 138 7.99036L138 6.00006C138 2.68636 135.314 6.07952e-05 132 6.04992e-05L6.00001 4.92445e-05C2.68631 4.89485e-05 1.15778e-05 2.68634 1.12943e-05 6.00005L1.11232e-05 8.00002Z" fill="white" fill-opacity="0.2" style="mix-blend-mode:multiply"/>
</g>
<rect x="-1" width="26" height="12" fill="#005BBB"/>
<rect x="-1" y="12" width="26" height="12" fill="#FFD500"/>
<path d="M-7 51.4415L31.1123 29H94.5441L104.644 37.2494L109.736 45.0387L114 64.8195L112.401 75.2447V80.3236V91.016V104.114L45.3764 195H-7V51.4415Z" fill="url(#paint1_linear_1777_10147)"/>
<g filter="url(#filter0_d_1777_10147)">
<path fill-rule="evenodd" clip-rule="evenodd" d="M34.8158 27C30.7921 27 27.5264 30.2657 27.5264 34.2895V69.6955C27.5264 71.6288 28.2944 73.4829 29.6614 74.85C31.0284 76.217 32.8826 76.985 34.8158 76.985H77.5114V64.4887C77.5114 62.2793 78.3891 60.1603 79.9514 58.598C81.5137 57.0356 83.6327 56.1579 85.8422 56.1579H98.3384V34.2895C98.3384 30.2657 95.0728 27 91.049 27H34.8158ZM39.1076 38.5812C39.6935 37.9954 40.0226 37.2007 40.0226 36.3722V32.2068H46.2707V36.3722C46.2707 38.8578 45.2833 41.2417 43.5257 42.9993C41.7681 44.7569 39.3842 45.7444 36.8986 45.7444H32.7331V39.4962H36.8986C37.7271 39.4962 38.5217 39.1671 39.1076 38.5812ZM39.1076 65.4038C38.5217 64.8179 37.7271 64.4887 36.8986 64.4887H32.7331V58.2406H36.8986C39.3842 58.2406 41.7681 59.2281 43.5257 60.9857C45.2833 62.7433 46.2707 65.1272 46.2707 67.6128V71.7782H40.0226V67.6128C40.0226 66.7843 39.6935 65.9896 39.1076 65.4038ZM86.7572 38.5812C87.3431 39.1671 88.1377 39.4962 88.9663 39.4962H93.1317V45.7444H88.9663C86.4806 45.7444 84.0967 44.7569 82.3391 42.9993C80.5815 41.2417 79.5941 38.8578 79.5941 36.3722V32.2068H85.8422V36.3722C85.8422 37.2007 86.1713 37.9954 86.7572 38.5812ZM77.5114 83.2331H37.5275C38.6246 85.1334 40.2027 86.7112 42.1031 87.808C44.0035 88.9048 46.1592 89.4819 48.3534 89.4813H77.5114V83.2331ZM110.835 56.1579V47.8271C110.836 45.6328 110.259 43.4769 109.162 41.5765C108.065 39.676 106.487 38.0979 104.587 37.0012V56.1579H110.835ZM83.5068 62.1534C84.6786 60.9816 86.2678 60.3233 87.9249 60.3233H108.752C110.409 60.3233 111.998 60.9816 113.17 62.1534C114.342 63.3251 115 64.9144 115 66.5715V99.8948C115 101.552 114.342 103.141 113.17 104.313C111.998 105.485 110.409 106.143 108.752 106.143H87.9249C86.2678 106.143 84.6786 105.485 83.5068 104.313C82.3351 103.141 81.6768 101.552 81.6768 99.8948V66.5715C81.6768 64.9144 82.3351 63.3251 83.5068 62.1534ZM94.173 79.0677H90.0076C89.4552 79.0677 88.9255 79.2871 88.5349 79.6777C88.1443 80.0683 87.9249 80.598 87.9249 81.1504C87.9249 81.7028 88.1443 82.2325 88.5349 82.6231C88.9255 83.0137 89.4552 83.2331 90.0076 83.2331H94.173C94.7254 83.2331 95.2551 83.0137 95.6457 82.6231C96.0363 82.2325 96.2557 81.7028 96.2557 81.1504C96.2557 80.598 96.0363 80.0683 95.6457 79.6777C95.2551 79.2871 94.7254 79.0677 94.173 79.0677ZM106.669 79.0677H102.504C101.951 79.0677 101.422 79.2871 101.031 79.6777C100.641 80.0683 100.421 80.598 100.421 81.1504C100.421 81.7028 100.641 82.2325 101.031 82.6231C101.422 83.0137 101.951 83.2331 102.504 83.2331H106.669C107.222 83.2331 107.751 83.0137 108.142 82.6231C108.533 82.2325 108.752 81.7028 108.752 81.1504C108.752 80.598 108.533 80.0683 108.142 79.6777C107.751 79.2871 107.222 79.0677 106.669 79.0677ZM94.173 87.3985H90.0076C89.4552 87.3985 88.9255 87.618 88.5349 88.0085C88.1443 88.3991 87.9249 88.9289 87.9249 89.4813C87.9249 90.0336 88.1443 90.5634 88.5349 90.9539C88.9255 91.3445 89.4552 91.564 90.0076 91.564H94.173C94.7254 91.564 95.2551 91.3445 95.6457 90.9539C96.0363 90.5634 96.2557 90.0336 96.2557 89.4813C96.2557 88.9289 96.0363 88.3991 95.6457 88.0085C95.2551 87.618 94.7254 87.3985 94.173 87.3985ZM106.669 87.3985H102.504C101.951 87.3985 101.422 87.618 101.031 88.0085C100.641 88.3991 100.421 88.9289 100.421 89.4813C100.421 90.0336 100.641 90.5634 101.031 90.9539C101.422 91.3445 101.951 91.564 102.504 91.564H106.669C107.222 91.564 107.751 91.3445 108.142 90.9539C108.533 90.5634 108.752 90.0336 108.752 89.4813C108.752 88.9289 108.533 88.3991 108.142 88.0085C107.751 87.618 107.222 87.3985 106.669 87.3985ZM94.173 95.7294H90.0076C89.4552 95.7294 88.9255 95.9488 88.5349 96.3394C88.1443 96.73 87.9249 97.2597 87.9249 97.8121C87.9249 98.3644 88.1443 98.8942 88.5349 99.2848C88.9255 99.6754 89.4552 99.8948 90.0076 99.8948H94.173C94.7254 99.8948 95.2551 99.6754 95.6457 99.2848C96.0363 98.8942 96.2557 98.3644 96.2557 97.8121C96.2557 97.2597 96.0363 96.73 95.6457 96.3394C95.2551 95.9488 94.7254 95.7294 94.173 95.7294ZM106.669 95.7294H102.504C101.951 95.7294 101.422 95.9488 101.031 96.3394C100.641 96.73 100.421 97.2597 100.421 97.8121C100.421 98.3644 100.641 98.8942 101.031 99.2848C101.422 99.6754 101.951 99.8948 102.504 99.8948H106.669C107.222 99.8948 107.751 99.6754 108.142 99.2848C108.533 98.8942 108.752 98.3644 108.752 97.8121C108.752 97.2597 108.533 96.73 108.142 96.3394C107.751 95.9488 107.222 95.7294 106.669 95.7294ZM88.5349 67.1815C88.1443 67.572 87.9249 68.1018 87.9249 68.6542V72.8196C87.9249 73.3719 88.1443 73.9017 88.5349 74.2923C88.9255 74.6829 89.4552 74.9023 90.0076 74.9023H106.669C107.222 74.9023 107.751 74.6829 108.142 74.2923C108.533 73.9017 108.752 73.3719 108.752 72.8196V68.6542C108.752 68.1018 108.533 67.572 108.142 67.1815C107.751 66.7909 107.222 66.5715 106.669 66.5715H90.0076C89.4552 66.5715 88.9255 66.7909 88.5349 67.1815ZM61.4192 41.8091C60.0516 41.8091 58.7168 42.275 57.6437 43.1346V43.1412L57.2577 43.4496C56.3547 44.1713 55.033 44.027 54.3132 43.1215C53.5934 42.216 53.7374 40.8905 54.6404 40.1687L55.0264 39.8537C56.8389 38.3971 59.0963 37.6031 61.4192 37.6031H64.259C68.342 37.6031 71.6529 40.9233 71.6529 45.0178C71.6529 45.7133 71.5547 46.3958 71.3715 47.0519H72.6998C73.8579 47.0519 74.7936 47.9902 74.7936 49.1517C74.7936 50.3131 73.8579 51.2514 72.6998 51.2514H68.2634C68.1522 51.3236 68.041 51.3892 67.9297 51.4548L64.6188 53.3511H72.6998C73.8579 53.3511 74.7936 54.2895 74.7936 55.4509C74.7936 56.6123 73.8579 57.5506 72.6998 57.5506H57.7222C57.2577 58.1149 56.9959 58.8302 56.9959 59.5848C56.9959 61.363 58.4289 62.8 60.2021 62.8H63.0419C64.416 62.8 65.7443 62.3341 66.8174 61.4745L67.2034 61.1661C68.1064 60.4443 69.4281 60.5887 70.1479 61.4942C70.8677 62.3997 70.7237 63.7252 69.8207 64.447L69.4347 64.7554C67.6222 66.2121 65.3648 67.006 63.0419 67.006H60.2021C56.1191 67.006 52.8082 63.6858 52.8082 59.5913C52.8082 58.8958 52.9064 58.2068 53.0896 57.5572H51.7613C50.6032 57.5572 49.6675 56.6189 49.6675 55.4574C49.6675 54.296 50.6032 53.3577 51.7613 53.3577H56.1977C56.3089 53.2855 56.4201 53.2199 56.5313 53.1543L56.5314 53.1543L59.8423 51.258H51.7613C50.6032 51.258 49.6675 50.3196 49.6675 49.1582C49.6675 47.9968 50.6032 47.0585 51.7613 47.0585H66.7389C67.2034 46.4942 67.4652 45.779 67.4652 45.0244C67.4652 43.2461 66.0322 41.8091 64.259 41.8091H61.4192Z" fill="white"/>
</g>
<path d="M15.2936 132.727C13.1518 132.727 11.2305 132.336 9.52971 131.554C7.82891 130.74 6.47456 129.648 5.46667 128.28C4.49028 126.912 3.95484 125.397 3.86035 123.736H10.5219C10.6478 124.778 11.1348 125.774 11.9852 126.458C12.8671 127.143 14.0022 127.589 15.2936 127.589C16.5534 127.589 17.3886 127.363 18.0441 126.767C18.6997 126.171 18.9778 125.657 19.0771 124.835C19.1864 123.931 18.8785 123.211 17.9393 122.612C17.0889 122.156 15.7188 121.667 13.829 121.146C11.8762 120.657 10.2699 120.153 9.01002 119.631C7.78166 119.11 6.71078 118.312 5.79738 117.237C4.91548 116.162 4.47453 114.712 4.47453 112.888C4.47453 111.39 4.88399 110.022 5.70289 108.784C6.5533 107.546 7.75016 106.569 9.29349 105.852C10.8683 105.135 12.7109 104.777 14.8211 104.777C17.9393 104.777 20.4275 105.591 22.2858 107.22C24.1441 108.816 25.1677 110.983 25.3567 113.719H19.0259C18.9314 112.644 18.474 111.685 17.6866 111.066C16.9306 110.414 15.8789 109.915 14.5876 109.915C13.3907 109.915 12.5628 110.137 11.9654 110.675C11.3354 111.131 10.992 111.895 10.992 112.71C10.992 113.622 11.3408 114.403 12.2227 114.892C13.1046 115.348 14.4747 115.82 16.333 116.309C18.2227 116.797 19.7818 117.302 21.0102 117.823C22.2385 118.345 23.2937 119.159 24.1756 120.267C25.089 121.342 25.5614 122.775 25.5929 124.566C25.5929 126.13 25.1677 127.531 24.3173 128.769C23.4984 130.007 22.3015 130.984 20.7267 131.7C19.1834 132.385 17.3723 132.727 15.2936 132.727Z" fill="white"/>
<ellipse cx="31.4535" cy="128.194" rx="4.39535" ry="4.53237" fill="white"/>
</g>
<defs>
<filter id="filter0_d_1777_10147" x="27.5264" y="27" width="87.4736" height="81.1429" filterUnits="userSpaceOnUse" color-interpolation-filters="sRGB">
<feFlood flood-opacity="0" result="BackgroundImageFix"/>
<feColorMatrix in="SourceAlpha" type="matrix" values="0 0 0 0 0 0 0 0 0 0 0 0 0 0 0 0 0 0 127 0" result="hardAlpha"/>
<feOffset dy="2"/>
<feComposite in2="hardAlpha" operator="out"/>
<feColorMatrix type="matrix" values="0 0 0 0 0 0 0 0 0 0 0 0 0 0 0 0 0 0 0.5 0"/>
<feBlend mode="normal" in2="BackgroundImageFix" result="effect1_dropShadow_1777_10147"/>
<feBlend mode="normal" in="SourceGraphic" in2="effect1_dropShadow_1777_10147" result="shape"/>
</filter>
<linearGradient id="paint0_linear_1777_10147" x1="-2.57045e-07" y1="138" x2="140.965" y2="3.09775" gradientUnits="userSpaceOnUse">
<stop/>
<stop offset="1" stop-opacity="0"/>
</linearGradient>
<linearGradient id="paint1_linear_1777_10147" x1="-0.308736" y1="166.16" x2="86.4744" y2="78.336" gradientUnits="userSpaceOnUse">
<stop stop-opacity="0.24"/>
<stop offset="1" stop-opacity="0.1"/>
</linearGradient>
<clipPath id="clip0_1777_10147">
<rect width="138" height="138" rx="6" fill="white"/>
</clipPath>
</defs>
</svg>
