<svg width="138" height="138" viewBox="0 0 138 138" fill="none" xmlns="http://www.w3.org/2000/svg">
<g clip-path="url(#clip0_1307_6814)">
<mask id="mask0_1307_6814" style="mask-type:alpha" maskUnits="userSpaceOnUse" x="0" y="0" width="138" height="138">
<rect width="138" height="138" fill="#6F0252"/>
<rect width="138" height="138" fill="url(#paint0_linear_1307_6814)" fill-opacity="0.3"/>
</mask>
<g mask="url(#mask0_1307_6814)">
<g filter="url(#filter0_f_1307_6814)">
<ellipse cx="72" cy="61.5" rx="140" ry="143.5" transform="rotate(-180 72 61.5)" fill="#D10000"/>
</g>
<g filter="url(#filter1_f_1307_6814)">
<ellipse cx="12.5" cy="135" rx="104.5" ry="107" transform="rotate(-180 12.5 135)" fill="#A20091"/>
</g>
<g filter="url(#filter2_f_1307_6814)">
<ellipse cx="-26.5" cy="-38" rx="104.5" ry="102" fill="#FF6442"/>
</g>
<g filter="url(#filter3_f_1307_6814)">
<ellipse cx="177.5" cy="157.5" rx="109.5" ry="103.5" fill="#FF005C"/>
</g>
<g filter="url(#filter4_f_1307_6814)">
<ellipse cx="168" cy="-27.5" rx="104" ry="107.5" transform="rotate(-180 168 -27.5)" fill="#EBC500"/>
</g>
<rect width="138" height="138" fill="url(#paint1_linear_1307_6814)" fill-opacity="0.15" style="mix-blend-mode:multiply"/>
</g>
<path style="mix-blend-mode:multiply" fill-rule="evenodd" clip-rule="evenodd" d="M0 130V132C0 135.314 2.68629 138 6 138H132C135.314 138 138 135.314 138 132V130C138 133.314 135.314 136 132 136H6C2.68629 136 0 133.314 0 130ZM6 0C3.10051 0 0.681376 2.05669 0.121899 4.79079C0.681379 2.0567 3.10051 7.62939e-06 6 7.62939e-06L132 0C135.314 7.62939e-06 138 2.6863 138 6C138 2.68629 135.314 0 132 0H6Z" fill="black" fill-opacity="0.3"/>
<g style="mix-blend-mode:screen">
<path fill-rule="evenodd" clip-rule="evenodd" d="M137.936 132.881C137.51 135.777 135.014 138 132 138L6 138L132 138C135.014 138 137.51 135.777 137.936 132.881ZM1.11232e-05 7.99996C1.14067e-05 4.68625 2.68629 1.99996 6.00001 1.99996L132 1.99997C135.311 1.99997 137.995 4.68103 138 7.9903L138 6C138 2.68629 135.314 -2.39948e-07 132 -5.3594e-07L6.00001 -1.17907e-05C2.68631 -1.20867e-05 1.15778e-05 2.68628 1.12943e-05 5.99999L1.11232e-05 7.99996Z" fill="white" fill-opacity="0.2" style="mix-blend-mode:multiply"/>
</g>
<rect x="-1" width="26" height="12" fill="#005BBB"/>
<rect x="-1" y="12" width="26" height="12" fill="#FFD500"/>
<rect x="-1" width="26" height="12" fill="#005BBB"/>
<rect x="-1" y="12" width="26" height="12" fill="#FFD500"/>
<path d="M-5.78149 48.9195L50.5 23L73.5 48.9195L85 50.5H117.5L119 64V95L54.955 184H-5.78149V48.9195Z" fill="url(#paint2_linear_1307_6814)"/>
<path fill-rule="evenodd" clip-rule="evenodd" d="M84.2801 48.418C83.2419 48.418 82.4001 49.2597 82.4001 50.298V94.8809C82.4001 95.9192 83.2418 96.7609 84.2801 96.7609H118.12C119.158 96.7609 120 95.9192 120 94.8809V50.298C120 49.2597 119.158 48.418 118.12 48.418H84.2801ZM86.1601 53.1851C86.1601 52.9255 86.3705 52.7151 86.6301 52.7151H115.77C116.03 52.7151 116.24 52.9255 116.24 53.1851V67.8222C116.24 68.0818 116.03 68.2922 115.77 68.2922H86.6301C86.3705 68.2922 86.1601 68.0818 86.1601 67.8222V53.1851ZM86.1601 71.9851C86.1601 71.7255 86.3705 71.5151 86.6301 71.5151H93.2101C93.4697 71.5151 93.6801 71.7255 93.6801 71.9851V76.4165C93.6801 76.6761 93.4697 76.8865 93.2101 76.8865H86.6301C86.3705 76.8865 86.1601 76.6761 86.1601 76.4165V71.9851ZM86.6301 79.5726C86.3705 79.5726 86.1601 79.783 86.1601 80.0426V84.474C86.1601 84.7336 86.3705 84.944 86.6301 84.944H93.2101C93.4697 84.944 93.6801 84.7336 93.6801 84.474V80.0426C93.6801 79.783 93.4697 79.5726 93.2101 79.5726H86.6301ZM86.1601 88.0993C86.1601 87.8397 86.3705 87.6293 86.6301 87.6293H93.2101C93.4697 87.6293 93.6801 87.8397 93.6801 88.0993V92.5307C93.6801 92.7903 93.4697 93.0007 93.2101 93.0007H86.6301C86.3705 93.0007 86.1601 92.7903 86.1601 92.5307V88.0993ZM97.91 71.5151C97.6505 71.5151 97.44 71.7255 97.44 71.9851V76.4165C97.44 76.6761 97.6505 76.8865 97.91 76.8865H104.49C104.75 76.8865 104.96 76.6761 104.96 76.4165V71.9851C104.96 71.7255 104.75 71.5151 104.49 71.5151H97.91ZM97.44 80.0426C97.44 79.783 97.6505 79.5726 97.91 79.5726H104.49C104.75 79.5726 104.96 79.783 104.96 80.0426V84.474C104.96 84.7336 104.75 84.944 104.49 84.944H97.91C97.6505 84.944 97.44 84.7336 97.44 84.474V80.0426ZM97.91 87.6293C97.6505 87.6293 97.44 87.8397 97.44 88.0993V92.5307C97.44 92.7903 97.6505 93.0007 97.91 93.0007H104.49C104.75 93.0007 104.96 92.7903 104.96 92.5307V88.0993C104.96 87.8397 104.75 87.6293 104.49 87.6293H97.91ZM108.72 71.9851C108.72 71.7255 108.93 71.5151 109.19 71.5151H115.77C116.03 71.5151 116.24 71.7255 116.24 71.9851V76.4165C116.24 76.6761 116.03 76.8865 115.77 76.8865H109.19C108.93 76.8865 108.72 76.6761 108.72 76.4165V71.9851ZM109.19 79.5726C108.93 79.5726 108.72 79.783 108.72 80.0426V84.474C108.72 84.7336 108.93 84.944 109.19 84.944H115.77C116.03 84.944 116.24 84.7336 116.24 84.474V80.0426C116.24 79.783 116.03 79.5726 115.77 79.5726H109.19ZM108.72 88.0993C108.72 87.8397 108.93 87.6293 109.19 87.6293H115.77C116.03 87.6293 116.24 87.8397 116.24 88.0993V92.5307C116.24 92.7903 116.03 93.0007 115.77 93.0007H109.19C108.93 93.0007 108.72 92.7903 108.72 92.5307V88.0993Z" fill="white"/>
<path d="M89.4915 55L92.0556 63.3574H92.154L94.7232 55H97.2096L93.5526 66H90.6622L87 55H89.4915Z" fill="white"/>
<path d="M98.9047 66H96.5012L100.163 55H103.054L106.711 66H104.307L101.65 57.5137H101.567L98.9047 66ZM98.7545 61.6763H104.432V63.4917H98.7545V61.6763Z" fill="white"/>
<path d="M106.287 56.9175V55H115V56.9175H111.752V66H109.535V56.9175H106.287Z" fill="white"/>
<path d="M60.1068 20C60.6622 20.1117 61.2235 20.196 61.7711 20.3391C64.7985 21.1232 67.4152 22.5658 69.2868 25.1729C69.4045 25.3551 69.5752 25.4967 69.7758 25.5786C72.2302 26.3019 73.3274 28.1876 73.916 30.4692C74.577 33.0292 74.4577 35.6264 74.0998 38.2138C73.9395 39.3703 73.6852 40.5131 73.474 41.6637C74.9017 41.9891 75.3867 42.5007 75.3359 44.0414C75.2459 46.7287 74.444 49.2377 73.1572 51.5899C73.0281 51.8252 72.8521 52.1094 72.6272 52.2035C71.8566 52.5289 71.8293 53.2228 71.6181 53.8794C69.7797 59.6364 66.3944 63.9586 60.2515 65.3483C56.2325 66.2559 52.7768 64.7171 49.8432 62.016C47.2872 59.7066 45.5304 56.6421 44.8269 53.2659C44.8041 53.0734 44.7329 52.8899 44.62 52.7325C44.5071 52.5752 44.3562 52.4491 44.1815 52.3662C43.8566 52.1782 43.5925 51.9006 43.4207 51.5664C42.1279 49.1593 41.3183 46.6033 41.2694 43.8571C41.2479 42.485 41.8131 41.8969 43.1508 41.6853C42.9552 40.7209 42.7479 39.7584 42.5641 38.7901C41.4806 33.0272 43.5282 28.3816 47.7389 24.575C50.0857 22.4424 52.7201 20.739 55.9528 20.2176C56.344 20.1548 56.7351 20.0745 57.1126 20.002L60.1068 20Z" fill="white"/>
<path fill-rule="evenodd" clip-rule="evenodd" d="M53.7488 85.5217L46.8393 63.6953C46.7569 63.7422 46.6899 63.7794 46.632 63.8115C46.5471 63.8586 46.482 63.8948 46.4168 63.9344C42.109 66.7409 37.4043 68.8819 32.4609 70.2854C31.5473 70.5287 30.6728 70.9009 29.8638 71.3909C27.6225 72.8002 26.7053 75.0623 26.2809 77.5399C25.7026 80.9057 26.1295 84.245 26.5559 87.58C26.6083 87.9897 26.6607 88.3993 26.7111 88.8089C26.7454 88.9345 26.8054 89.0517 26.8872 89.1529C26.969 89.2541 27.0709 89.3372 27.1864 89.3969C27.5206 89.5663 27.8541 89.7375 28.1877 89.9087C29.4292 90.5461 30.6714 91.1837 31.9524 91.7276C38.5295 94.5169 45.4136 96.0242 52.5225 96.5848C61.0702 97.294 69.6754 96.4601 77.9291 94.1229C78.088 94.0783 78.2467 94.033 78.4051 93.987V68.3069C75.568 67.1189 72.8567 65.6432 70.2452 63.956C70.0958 63.8735 69.9409 63.8014 69.7817 63.7404C67.4857 70.9773 65.2112 78.1574 62.9367 85.3394C62.3799 84.088 61.9188 82.8389 61.4627 81.6035C61.1723 80.8167 60.8839 80.0355 60.5742 79.2629C60.1693 78.2534 60.2456 77.5046 60.8891 76.6128C61.8552 75.2759 62.6081 73.7941 62.7138 72.0848C62.8057 70.6049 62.082 69.5425 60.6798 69.0485C59.4516 68.6073 58.1255 68.5157 56.8486 68.7839C54.4157 69.2818 53.3772 70.7852 54.1282 73.1374C54.4976 74.2928 55.105 75.3747 55.7082 76.4493C55.8745 76.7456 56.0406 77.0414 56.2012 77.338C56.3087 77.4981 56.3761 77.6818 56.3979 77.8735C56.4197 78.0652 56.3952 78.2594 56.3264 78.4396C55.8312 79.8114 55.3484 81.1873 54.8657 82.5631C54.6048 83.3065 54.344 84.0499 54.0812 84.7925C54.0391 84.9117 53.9845 85.0253 53.9074 85.1857C53.8627 85.2786 53.8105 85.3872 53.7488 85.5217Z" fill="white"/>
<path d="M26 81.083H52.2025L54.905 93.538L62.0725 88.9555L65.3038 81.083H78.4051V96.828H28.585C27.1573 96.828 26 95.6707 26 94.243V81.083Z" fill="white"/>
<path d="M15.9408 132.446C13.5951 132.446 11.4908 132.022 9.628 131.173C7.76521 130.288 6.28188 129.104 5.178 127.618C4.10862 126.133 3.52219 124.488 3.4187 122.684H10.7146C10.8526 123.816 11.386 124.898 12.3174 125.641C13.2833 126.383 14.5265 126.868 15.9408 126.868C17.3206 126.868 18.2353 126.622 18.9533 125.975C19.6713 125.328 19.9759 124.77 20.0847 123.878C20.2043 122.896 19.8671 122.115 18.8385 121.464C17.9071 120.969 16.4065 120.439 14.3367 119.873C12.198 119.342 10.4387 118.794 9.05882 118.228C7.71347 117.662 6.5406 116.796 5.54021 115.629C4.57432 114.462 4.09138 112.888 4.09138 110.907C4.09138 109.28 4.53983 107.795 5.43672 106.451C6.36812 105.107 7.67897 104.046 9.36928 103.268C11.0941 102.49 13.1121 102.101 15.4234 102.101C18.8385 102.101 21.5637 102.985 23.5989 104.753C25.6342 106.486 26.7553 108.838 26.9623 111.809H20.0286C19.9251 110.642 19.4241 109.6 18.5617 108.928C17.7338 108.221 16.5819 107.679 15.1676 107.679C13.8567 107.679 12.9499 107.92 12.2956 108.504C11.6057 108.999 11.2295 109.829 11.2295 110.713C11.2295 111.704 11.6115 112.552 12.5774 113.082C13.5433 113.577 15.0439 114.09 17.0792 114.621C19.1489 115.151 20.8565 115.699 22.2018 116.265C23.5472 116.831 24.7028 117.715 25.6687 118.918C26.6691 120.085 27.1865 121.641 27.221 123.586C27.221 125.284 26.7553 126.805 25.8239 128.149C24.927 129.493 23.6162 130.554 21.8914 131.332C20.2011 132.075 18.2175 132.446 15.9408 132.446Z" fill="white"/>
<ellipse cx="33.6396" cy="127.525" rx="4.81395" ry="4.92086" fill="white"/>
</g>
<defs>
<filter id="filter0_f_1307_6814" x="-103" y="-117" width="350" height="357" filterUnits="userSpaceOnUse" color-interpolation-filters="sRGB">
<feFlood flood-opacity="0" result="BackgroundImageFix"/>
<feBlend mode="normal" in="SourceGraphic" in2="BackgroundImageFix" result="shape"/>
<feGaussianBlur stdDeviation="17.5" result="effect1_foregroundBlur_1307_6814"/>
</filter>
<filter id="filter1_f_1307_6814" x="-192" y="-72" width="409" height="414" filterUnits="userSpaceOnUse" color-interpolation-filters="sRGB">
<feFlood flood-opacity="0" result="BackgroundImageFix"/>
<feBlend mode="normal" in="SourceGraphic" in2="BackgroundImageFix" result="shape"/>
<feGaussianBlur stdDeviation="50" result="effect1_foregroundBlur_1307_6814"/>
</filter>
<filter id="filter2_f_1307_6814" x="-231" y="-240" width="409" height="404" filterUnits="userSpaceOnUse" color-interpolation-filters="sRGB">
<feFlood flood-opacity="0" result="BackgroundImageFix"/>
<feBlend mode="normal" in="SourceGraphic" in2="BackgroundImageFix" result="shape"/>
<feGaussianBlur stdDeviation="50" result="effect1_foregroundBlur_1307_6814"/>
</filter>
<filter id="filter3_f_1307_6814" x="-32" y="-46" width="419" height="407" filterUnits="userSpaceOnUse" color-interpolation-filters="sRGB">
<feFlood flood-opacity="0" result="BackgroundImageFix"/>
<feBlend mode="normal" in="SourceGraphic" in2="BackgroundImageFix" result="shape"/>
<feGaussianBlur stdDeviation="50" result="effect1_foregroundBlur_1307_6814"/>
</filter>
<filter id="filter4_f_1307_6814" x="-36" y="-235" width="408" height="415" filterUnits="userSpaceOnUse" color-interpolation-filters="sRGB">
<feFlood flood-opacity="0" result="BackgroundImageFix"/>
<feBlend mode="normal" in="SourceGraphic" in2="BackgroundImageFix" result="shape"/>
<feGaussianBlur stdDeviation="50" result="effect1_foregroundBlur_1307_6814"/>
</filter>
<linearGradient id="paint0_linear_1307_6814" x1="-2.57045e-07" y1="138" x2="140.965" y2="3.09775" gradientUnits="userSpaceOnUse">
<stop/>
<stop offset="1" stop-opacity="0"/>
</linearGradient>
<linearGradient id="paint1_linear_1307_6814" x1="-2.57045e-07" y1="138" x2="140.965" y2="3.09775" gradientUnits="userSpaceOnUse">
<stop/>
<stop offset="1" stop-opacity="0"/>
</linearGradient>
<linearGradient id="paint2_linear_1307_6814" x1="1.25951" y1="157.778" x2="79.1935" y2="66.4995" gradientUnits="userSpaceOnUse">
<stop stop-opacity="0.24"/>
<stop offset="1" stop-opacity="0.1"/>
</linearGradient>
<clipPath id="clip0_1307_6814">
<rect width="138" height="138" rx="6" fill="white"/>
</clipPath>
</defs>
</svg>
