<svg width="138" height="138" viewBox="0 0 138 138" fill="none" xmlns="http://www.w3.org/2000/svg">
<g clip-path="url(#clip0_2560_19506)">
<rect width="138" height="138" fill="#005BBB"/>
<rect width="138" height="138" fill="url(#paint0_linear_2560_19506)" fill-opacity="0.15" style="mix-blend-mode:multiply"/>
<path style="mix-blend-mode:multiply" fill-rule="evenodd" clip-rule="evenodd" d="M0 130V132C0 135.314 2.68629 138 6 138H132C135.314 138 138 135.314 138 132V130C138 133.314 135.314 136 132 136H6C2.68629 136 0 133.314 0 130ZM6 0C3.10051 0 0.681376 2.05669 0.121899 4.79079C0.681379 2.0567 3.10051 7.62939e-06 6 7.62939e-06L132 0C135.314 7.62939e-06 138 2.6863 138 6C138 2.68629 135.314 0 132 0H6Z" fill="black" fill-opacity="0.3"/>
<g style="mix-blend-mode:screen">
<path fill-rule="evenodd" clip-rule="evenodd" d="M137.936 132.881C137.51 135.777 135.014 138 132 138L6 138L132 138C135.014 138 137.51 135.777 137.936 132.881ZM1.11232e-05 8.00002C1.14067e-05 4.68631 2.68629 2.00002 6.00001 2.00002L132 2.00003C135.311 2.00003 137.995 4.68109 138 7.99036L138 6.00006C138 2.68636 135.314 6.07952e-05 132 6.04992e-05L6.00001 4.92445e-05C2.68631 4.89485e-05 1.15778e-05 2.68634 1.12943e-05 6.00005L1.11232e-05 8.00002Z" fill="white" fill-opacity="0.2" style="mix-blend-mode:multiply"/>
</g>
<rect x="-1" width="26" height="12" fill="#005BBB"/>
<rect x="-1" y="12" width="26" height="12" fill="#FFD500"/>
<path d="M-7.5 58L41 30L63.7047 26L77.5 27.5L100.41 48.5L99 61V72L100.41 80V88.4116L104.175 93.2876L102 106.5L75.5 149L-7.5 153.5V58Z" fill="url(#paint1_linear_2560_19506)"/>
<path d="M15.2936 132.727C13.1518 132.727 11.2305 132.336 9.52971 131.554C7.82891 130.74 6.47456 129.648 5.46667 128.28C4.49028 126.912 3.95484 125.397 3.86035 123.736H10.5219C10.6478 124.778 11.1348 125.774 11.9852 126.458C12.8671 127.143 14.0022 127.589 15.2936 127.589C16.5534 127.589 17.3886 127.363 18.0441 126.767C18.6997 126.171 18.9778 125.657 19.0771 124.835C19.1864 123.931 18.8785 123.211 17.9393 122.612C17.0889 122.156 15.7188 121.667 13.829 121.146C11.8762 120.657 10.2699 120.153 9.01002 119.631C7.78166 119.11 6.71078 118.312 5.79738 117.237C4.91548 116.162 4.47453 114.712 4.47453 112.888C4.47453 111.39 4.88399 110.022 5.70289 108.784C6.5533 107.546 7.75016 106.569 9.29349 105.852C10.8683 105.135 12.7109 104.777 14.8211 104.777C17.9393 104.777 20.4275 105.591 22.2858 107.22C24.1441 108.816 25.1677 110.983 25.3567 113.719H19.0259C18.9314 112.644 18.474 111.685 17.6866 111.066C16.9306 110.414 15.8789 109.915 14.5876 109.915C13.3907 109.915 12.5628 110.137 11.9654 110.675C11.3354 111.131 10.992 111.895 10.992 112.71C10.992 113.622 11.3408 114.403 12.2227 114.892C13.1046 115.348 14.4747 115.82 16.333 116.309C18.2227 116.797 19.7818 117.302 21.0102 117.823C22.2385 118.345 23.2937 119.159 24.1756 120.267C25.089 121.342 25.5614 122.775 25.5929 124.566C25.5929 126.13 25.1677 127.531 24.3173 128.769C23.4984 130.007 22.3015 130.984 20.7267 131.7C19.1834 132.385 17.3723 132.727 15.2936 132.727Z" fill="white"/>
<ellipse cx="31.4535" cy="128.194" rx="4.39535" ry="4.53237" fill="white"/>
<g filter="url(#filter0_d_2560_19506)">
<path fill-rule="evenodd" clip-rule="evenodd" d="M98.7188 55.05H75.6875V32.225L98.7188 55.05ZM79.875 26H46.375C41.7269 26 38 29.6935 38 34.3V100.7C38 102.901 38.8824 105.012 40.453 106.569C42.0236 108.126 44.1538 109 46.375 109H96.625C98.8462 109 100.976 108.126 102.547 106.569C104.118 105.012 105 102.901 105 100.7V50.9L79.875 26ZM58.9375 100.7H50.5625V80.5H58.9375V100.7ZM75.6875 100.7H67.3125V72H75.6875V100.7ZM92.4375 100.7H84.0625V62H92.4375V100.7ZM56.2896 38.8623C55.0922 38.8623 53.9234 39.2901 52.9839 40.0794V40.0855L52.6458 40.3687C51.8552 41.0315 50.6979 40.8989 50.0677 40.0674C49.4375 39.2359 49.5635 38.0187 50.3542 37.3559L50.6922 37.0667C52.2792 35.7291 54.2557 35 56.2896 35H58.776C62.351 35 65.25 38.0489 65.25 41.8087C65.25 42.4474 65.1641 43.0741 65.0036 43.6766H66.1667C67.1807 43.6766 68 44.5383 68 45.6048C68 46.6713 67.1807 47.5329 66.1667 47.5329H62.2823C62.1849 47.5992 62.0875 47.6594 61.9901 47.7197L61.9901 47.7197L59.0911 49.4611H66.1667C67.1807 49.4611 68 50.3227 68 51.3892C68 52.4557 67.1807 53.3173 66.1667 53.3173H53.0526C52.6458 53.8355 52.4167 54.4923 52.4167 55.1852C52.4167 56.8181 53.6714 58.1377 55.224 58.1377H57.7104C58.9135 58.1377 60.0766 57.7099 61.0161 56.9206L61.3542 56.6374C62.1448 55.9746 63.3021 56.1071 63.9323 56.9386C64.5625 57.7701 64.4365 58.9873 63.6458 59.6501L63.3078 59.9333C61.7208 61.2709 59.7443 62 57.7104 62H55.224C51.649 62 48.75 58.9511 48.75 55.1913C48.75 54.5526 48.8359 53.9199 48.9964 53.3234H47.8333C46.8193 53.3234 46 52.4617 46 51.3952C46 50.3287 46.8193 49.4671 47.8333 49.4671H51.7177C51.8151 49.4008 51.9125 49.3405 52.0099 49.2803L54.9089 47.5389H47.8333C46.8193 47.5389 46 46.6773 46 45.6108C46 44.5443 46.8193 43.6827 47.8333 43.6827H60.9474C61.3542 43.1645 61.5833 42.5077 61.5833 41.8148C61.5833 40.1819 60.3286 38.8623 58.776 38.8623H56.2896Z" fill="white"/>
</g>
</g>
<defs>
<filter id="filter0_d_2560_19506" x="38" y="26" width="67" height="85" filterUnits="userSpaceOnUse" color-interpolation-filters="sRGB">
<feFlood flood-opacity="0" result="BackgroundImageFix"/>
<feColorMatrix in="SourceAlpha" type="matrix" values="0 0 0 0 0 0 0 0 0 0 0 0 0 0 0 0 0 0 127 0" result="hardAlpha"/>
<feOffset dy="2"/>
<feComposite in2="hardAlpha" operator="out"/>
<feColorMatrix type="matrix" values="0 0 0 0 0 0 0 0 0 0 0 0 0 0 0 0 0 0 0.5 0"/>
<feBlend mode="normal" in2="BackgroundImageFix" result="effect1_dropShadow_2560_19506"/>
<feBlend mode="normal" in="SourceGraphic" in2="effect1_dropShadow_2560_19506" result="shape"/>
</filter>
<linearGradient id="paint0_linear_2560_19506" x1="-2.57045e-07" y1="138" x2="140.965" y2="3.09775" gradientUnits="userSpaceOnUse">
<stop/>
<stop offset="1" stop-opacity="0"/>
</linearGradient>
<linearGradient id="paint1_linear_2560_19506" x1="0.90715" y1="166.697" x2="80.0449" y2="89.1751" gradientUnits="userSpaceOnUse">
<stop stop-opacity="0.24"/>
<stop offset="1" stop-opacity="0.1"/>
</linearGradient>
<clipPath id="clip0_2560_19506">
<rect width="138" height="138" rx="6" fill="white"/>
</clipPath>
</defs>
</svg>
