<svg width="138" height="138" viewBox="0 0 138 138" fill="none" xmlns="http://www.w3.org/2000/svg">
<g clip-path="url(#clip0_2152_5581)">
<rect width="138" height="138" fill="#5B4093"/>
<rect width="138" height="138" fill="url(#paint0_linear_2152_5581)" fill-opacity="0.15" style="mix-blend-mode:multiply"/>
<path style="mix-blend-mode:multiply" fill-rule="evenodd" clip-rule="evenodd" d="M0 130V132C0 135.314 2.68629 138 6 138H132C135.314 138 138 135.314 138 132V130C138 133.314 135.314 136 132 136H6C2.68629 136 0 133.314 0 130ZM6 0C3.10051 0 0.681376 2.05669 0.121899 4.79079C0.681379 2.0567 3.10051 7.62939e-06 6 7.62939e-06L132 0C135.314 7.62939e-06 138 2.6863 138 6C138 2.68629 135.314 0 132 0H6Z" fill="black" fill-opacity="0.3"/>
<g style="mix-blend-mode:screen">
<path fill-rule="evenodd" clip-rule="evenodd" d="M137.936 132.881C137.51 135.777 135.014 138 132 138L6 138L132 138C135.014 138 137.51 135.777 137.936 132.881ZM1.11232e-05 7.99996C1.14067e-05 4.68625 2.68629 1.99996 6.00001 1.99996L132 1.99997C135.311 1.99997 137.995 4.68103 138 7.9903L138 6C138 2.68629 135.314 -2.39948e-07 132 -5.35939e-07L6.00001 -1.17907e-05C2.68631 -1.20867e-05 1.15778e-05 2.68628 1.12943e-05 5.99999L1.11232e-05 7.99996Z" fill="white" fill-opacity="0.2" style="mix-blend-mode:multiply"/>
</g>
<rect x="-1" width="26" height="12" fill="#005BBB"/>
<rect x="-1" y="12" width="26" height="12" fill="#FFD500"/>
<path d="M-5 57.5L53 27L68.5 31.5L101.5 33L105 43.5L102.5 57.5L104.175 69.5L102.5 80.5L100.41 88.4116L104.175 83L103.5 84.5L106 89.5L34.3915 193H-5V57.5Z" fill="url(#paint1_linear_2152_5581)"/>
<path d="M15.2926 132.727C13.1508 132.727 11.2295 132.336 9.52874 131.554C7.82793 130.74 6.47358 129.648 5.46569 128.28C4.4893 126.912 3.95386 125.397 3.85938 123.736H10.5209C10.6469 124.778 11.1338 125.775 11.9843 126.459C12.8662 127.143 14.0012 127.589 15.2926 127.589C16.5524 127.589 17.3876 127.363 18.0431 126.767C18.6987 126.171 18.9768 125.657 19.0761 124.835C19.1854 123.931 18.8775 123.212 17.9383 122.612C17.0879 122.156 15.7178 121.667 13.828 121.146C11.8752 120.658 10.2689 120.153 9.00905 119.631C7.78068 119.11 6.7098 118.312 5.79641 117.237C4.91451 116.162 4.47356 114.713 4.47356 112.888C4.47356 111.39 4.88301 110.022 5.70192 108.784C6.55232 107.546 7.74919 106.569 9.29251 105.852C10.8673 105.135 12.7099 104.777 14.8201 104.777C17.9383 104.777 20.4265 105.591 22.2848 107.22C24.1431 108.816 25.1667 110.983 25.3557 113.719H19.0249C18.9304 112.644 18.473 111.685 17.6856 111.066C16.9297 110.414 15.878 109.915 14.5866 109.915C13.3897 109.915 12.5618 110.137 11.9644 110.675C11.3345 111.131 10.991 111.895 10.991 112.71C10.991 113.622 11.3398 114.403 12.2217 114.892C13.1036 115.348 14.4737 115.82 16.332 116.309C18.2218 116.797 19.7808 117.302 21.0092 117.824C22.2376 118.345 23.2927 119.159 24.1746 120.267C25.088 121.342 25.5604 122.775 25.5919 124.567C25.5919 126.13 25.1667 127.531 24.3163 128.769C23.4974 130.007 22.3006 130.984 20.7257 131.701C19.1824 132.385 17.3714 132.727 15.2926 132.727Z" fill="white"/>
<ellipse cx="31.4539" cy="128.194" rx="4.39535" ry="4.53237" fill="white"/>
<g filter="url(#filter0_d_2152_5581)">
<path d="M91.7279 82.6788H99.8112V34.1788H59.3945V42.2621H91.7279V82.6788ZM91.7279 90.7621V102.883C91.7279 105.118 89.9091 106.925 87.6579 106.925H39.2145C38.6815 106.928 38.1531 106.826 37.6598 106.624C37.1664 106.423 36.7177 106.125 36.3395 105.75C35.9613 105.374 35.661 104.928 35.456 104.436C35.2509 103.944 35.1451 103.416 35.1445 102.883L35.1526 46.3078C35.1526 44.0728 36.9714 42.2621 39.2226 42.2621H51.3072V30.1371C51.3072 29.0652 51.733 28.0372 52.4909 27.2792C53.2489 26.5213 54.2769 26.0955 55.3488 26.0955H103.849C104.921 26.0955 105.949 26.5213 106.707 27.2792C107.465 28.0372 107.89 29.0652 107.89 30.1371V86.7205C107.89 87.7924 107.465 88.8204 106.707 89.5783C105.949 90.3363 104.921 90.7621 103.849 90.7621H91.7279ZM51.3112 82.6788V90.7621H59.3945V94.8038H67.4779V90.7621H69.4987C72.1785 90.7621 74.7485 89.6976 76.6434 87.8027C78.5383 85.9078 79.6029 83.3378 79.6029 80.658C79.6029 77.9782 78.5383 75.4081 76.6434 73.5132C74.7485 71.6183 72.1785 70.5538 69.4987 70.5538H57.3737C56.8377 70.5538 56.3237 70.3409 55.9448 69.9619C55.5658 69.5829 55.3529 69.0689 55.3529 68.533C55.3529 67.997 55.5658 67.483 55.9448 67.104C56.3237 66.725 56.8377 66.5121 57.3737 66.5121H75.5612V58.4288H67.4779V54.3871H59.3945V58.4288H57.3737C54.6939 58.4288 52.1239 59.4933 50.229 61.3882C48.3341 63.2831 47.2695 65.8532 47.2695 68.533C47.2695 71.2128 48.3341 73.7828 50.229 75.6777C52.1239 77.5726 54.6939 78.6371 57.3737 78.6371H69.4987C70.0347 78.6371 70.5487 78.85 70.9276 79.229C71.3066 79.608 71.5195 80.122 71.5195 80.658C71.5195 81.1939 71.3066 81.7079 70.9276 82.0869C70.5487 82.4659 70.0347 82.6788 69.4987 82.6788H51.3112Z" fill="white"/>
</g>
</g>
<defs>
<filter id="filter0_d_2152_5581" x="35.1445" y="26.0955" width="72.7461" height="82.8293" filterUnits="userSpaceOnUse" color-interpolation-filters="sRGB">
<feFlood flood-opacity="0" result="BackgroundImageFix"/>
<feColorMatrix in="SourceAlpha" type="matrix" values="0 0 0 0 0 0 0 0 0 0 0 0 0 0 0 0 0 0 127 0" result="hardAlpha"/>
<feOffset dy="2"/>
<feComposite in2="hardAlpha" operator="out"/>
<feColorMatrix type="matrix" values="0 0 0 0 0 0 0 0 0 0 0 0 0 0 0 0 0 0 0.5 0"/>
<feBlend mode="normal" in2="BackgroundImageFix" result="effect1_dropShadow_2152_5581"/>
<feBlend mode="normal" in="SourceGraphic" in2="effect1_dropShadow_2152_5581" result="shape"/>
</filter>
<linearGradient id="paint0_linear_2152_5581" x1="-2.57045e-07" y1="138" x2="140.965" y2="3.09775" gradientUnits="userSpaceOnUse">
<stop/>
<stop offset="1" stop-opacity="0"/>
</linearGradient>
<linearGradient id="paint1_linear_2152_5581" x1="0.907138" y1="166.697" x2="80.0449" y2="89.1751" gradientUnits="userSpaceOnUse">
<stop stop-opacity="0.24"/>
<stop offset="1" stop-opacity="0.1"/>
</linearGradient>
<clipPath id="clip0_2152_5581">
<rect width="138" height="138" rx="6" fill="white"/>
</clipPath>
</defs>
</svg>
