<svg width="138" height="138" viewBox="0 0 138 138" fill="none" xmlns="http://www.w3.org/2000/svg">
<g clip-path="url(#clip0_1517_9750)">
<rect width="138" height="138" fill="#017E84"/>
<rect width="138" height="138" fill="url(#paint0_linear_1517_9750)" fill-opacity="0.15" style="mix-blend-mode:multiply"/>
<path style="mix-blend-mode:multiply" fill-rule="evenodd" clip-rule="evenodd" d="M0 130V132C0 135.314 2.68629 138 6 138H132C135.314 138 138 135.314 138 132V130C138 133.314 135.314 136 132 136H6C2.68629 136 0 133.314 0 130ZM6 0C3.10051 0 0.681376 2.05669 0.121899 4.79079C0.681379 2.0567 3.10051 7.62939e-06 6 7.62939e-06L132 0C135.314 7.62939e-06 138 2.6863 138 6C138 2.68629 135.314 0 132 0H6Z" fill="black" fill-opacity="0.3"/>
<g style="mix-blend-mode:screen">
<path fill-rule="evenodd" clip-rule="evenodd" d="M137.937 132.872C137.515 135.772 135.018 138 132 138L6 138C2.68628 138 2.2985e-07 135.314 5.13376e-07 132C2.29846e-07 135.314 2.68629 138 6 138L132 138C135.018 138 137.515 135.772 137.937 132.872ZM1.11232e-05 7.99996C1.14067e-05 4.68625 2.68631 1.99996 6.00001 1.99996L132 1.99997C135.311 1.99997 137.995 4.68103 138 7.9903L138 6C138 2.68629 135.314 -2.39948e-07 132 -5.3594e-07L6.00001 -1.17907e-05C2.68631 -1.20867e-05 1.15778e-05 2.68628 1.12943e-05 5.99999L1.11232e-05 7.99996Z" fill="white" fill-opacity="0.2" style="mix-blend-mode:multiply"/>
</g>
<rect x="-1" width="26" height="12" fill="#005BBB"/>
<rect x="-1" y="12" width="26" height="12" fill="#FFD500"/>
<path d="M-11 71.0844L35.5602 25L59.2475 27.6792H97.7861L97.7861 57.1609L102 111.274L69.0417 152H-8.38426L-11 71.0844Z" fill="url(#paint1_linear_1517_9750)"/>
<g filter="url(#filter0_d_1517_9750)">
<path fill-rule="evenodd" clip-rule="evenodd" d="M35 30C35 25.5817 38.5817 22 43 22H97C101.418 22 105 25.5817 105 30V104C105 108.418 101.418 112 97 112H43C38.5817 112 35 108.418 35 104V30ZM44 30C42.8954 30 42 30.8954 42 32V57C42 58.1046 42.8954 59 44 59H96C97.1046 59 98 58.1046 98 57V32C98 30.8954 97.1046 30 96 30H44ZM47 66C44.7909 66 43 67.7909 43 70V71C43 73.2091 44.7909 75 47 75H53C55.2091 75 57 73.2091 57 71V70C57 67.7909 55.2091 66 53 66H47ZM43 85C43 82.7909 44.7909 81 47 81H53C55.2091 81 57 82.7909 57 85V86C57 88.2091 55.2091 90 53 90H47C44.7909 90 43 88.2091 43 86V85ZM47 96C44.7909 96 43 97.7909 43 100V101C43 103.209 44.7909 105 47 105H53C55.2091 105 57 103.209 57 101V100C57 97.7909 55.2091 96 53 96H47ZM63 70C63 67.7909 64.7909 66 67 66H73C75.2091 66 77 67.7909 77 70V71C77 73.2091 75.2091 75 73 75H67C64.7909 75 63 73.2091 63 71V70ZM67 81C64.7909 81 63 82.7909 63 85V86C63 88.2091 64.7909 90 67 90H73C75.2091 90 77 88.2091 77 86V85C77 82.7909 75.2091 81 73 81H67ZM63 100C63 97.7909 64.7909 96 67 96H73C75.2091 96 77 97.7909 77 100V101C77 103.209 75.2091 105 73 105H67C64.7909 105 63 103.209 63 101V100ZM87 66C84.7909 66 83 67.7909 83 70V71C83 73.2091 84.7909 75 87 75H93C95.2091 75 97 73.2091 97 71V70C97 67.7909 95.2091 66 93 66H87ZM83 85C83 82.7909 84.7909 81 87 81H93C95.2091 81 97 82.7909 97 85V86C97 88.2091 95.2091 90 93 90H87C84.7909 90 83 88.2091 83 86V85ZM87 96C84.7909 96 83 97.7909 83 100V101C83 103.209 84.7909 105 87 105H93C95.2091 105 97 103.209 97 101V100C97 97.7909 95.2091 96 93 96H87ZM49.8651 36L54.2596 49.8139H54.4283L58.8317 36H63.0931L56.8253 54.1818H51.8715L45.5948 36H49.8651ZM65.9983 54.1818H61.879L68.1557 36H73.1095L79.3773 54.1818H75.2579L73.9118 50.0359H67.3471L65.9983 54.1818ZM70.7036 40.1548L72.9375 47.0352H68.3233L70.5616 40.1548H70.7036ZM78.6515 36V39.1694H84.2179V54.1818H88.0176V39.1694H93.584V36H78.6515Z" fill="white"/>
</g>
<path d="M15.2936 132.727C13.1518 132.727 11.2305 132.336 9.52971 131.554C7.82891 130.74 6.47456 129.648 5.46667 128.28C4.49028 126.912 3.95484 125.397 3.86035 123.736H10.5219C10.6478 124.778 11.1348 125.775 11.9852 126.459C12.8671 127.143 14.0022 127.589 15.2936 127.589C16.5534 127.589 17.3886 127.363 18.0441 126.767C18.6997 126.171 18.9778 125.657 19.0771 124.835C19.1864 123.931 18.8785 123.212 17.9393 122.612C17.0889 122.156 15.7188 121.667 13.829 121.146C11.8762 120.658 10.2699 120.153 9.01002 119.631C7.78166 119.11 6.71078 118.312 5.79738 117.237C4.91548 116.162 4.47453 114.713 4.47453 112.888C4.47453 111.39 4.88399 110.022 5.70289 108.784C6.5533 107.546 7.75016 106.569 9.29349 105.852C10.8683 105.135 12.7109 104.777 14.8211 104.777C17.9393 104.777 20.4275 105.591 22.2858 107.22C24.1441 108.816 25.1677 110.983 25.3567 113.719H19.0259C18.9314 112.644 18.474 111.685 17.6866 111.066C16.9306 110.414 15.8789 109.915 14.5876 109.915C13.3907 109.915 12.5628 110.137 11.9654 110.675C11.3354 111.131 10.992 111.895 10.992 112.71C10.992 113.622 11.3408 114.403 12.2227 114.892C13.1046 115.348 14.4747 115.82 16.333 116.309C18.2227 116.797 19.7818 117.302 21.0102 117.824C22.2385 118.345 23.2937 119.159 24.1756 120.267C25.089 121.342 25.5614 122.775 25.5929 124.567C25.5929 126.13 25.1677 127.531 24.3173 128.769C23.4984 130.007 22.3015 130.984 20.7267 131.701C19.1834 132.385 17.3723 132.727 15.2936 132.727Z" fill="white"/>
<ellipse cx="31.4535" cy="128.194" rx="4.39535" ry="4.53237" fill="white"/>
</g>
<defs>
<filter id="filter0_d_1517_9750" x="35" y="22" width="70" height="92" filterUnits="userSpaceOnUse" color-interpolation-filters="sRGB">
<feFlood flood-opacity="0" result="BackgroundImageFix"/>
<feColorMatrix in="SourceAlpha" type="matrix" values="0 0 0 0 0 0 0 0 0 0 0 0 0 0 0 0 0 0 127 0" result="hardAlpha"/>
<feOffset dy="2"/>
<feComposite in2="hardAlpha" operator="out"/>
<feColorMatrix type="matrix" values="0 0 0 0 0 0 0 0 0 0 0 0 0 0 0 0 0 0 0.5 0"/>
<feBlend mode="normal" in2="BackgroundImageFix" result="effect1_dropShadow_1517_9750"/>
<feBlend mode="normal" in="SourceGraphic" in2="effect1_dropShadow_1517_9750" result="shape"/>
</filter>
<linearGradient id="paint0_linear_1517_9750" x1="-2.57045e-07" y1="138" x2="140.965" y2="3.09775" gradientUnits="userSpaceOnUse">
<stop/>
<stop offset="1" stop-opacity="0"/>
</linearGradient>
<linearGradient id="paint1_linear_1517_9750" x1="-0.537039" y1="152.536" x2="78.0042" y2="61.1532" gradientUnits="userSpaceOnUse">
<stop stop-opacity="0.5"/>
<stop offset="1" stop-opacity="0"/>
</linearGradient>
<clipPath id="clip0_1517_9750">
<rect width="138" height="138" rx="6" fill="white"/>
</clipPath>
</defs>
</svg>
