<svg width="138" height="138" viewBox="0 0 138 138" fill="none" xmlns="http://www.w3.org/2000/svg">
<g clip-path="url(#clip0_1305_6302)">
<mask id="mask0_1305_6302" style="mask-type:alpha" maskUnits="userSpaceOnUse" x="0" y="0" width="138" height="138">
<rect width="138" height="138" fill="#6F0252"/>
<rect width="138" height="138" fill="url(#paint0_linear_1305_6302)" fill-opacity="0.3"/>
</mask>
<g mask="url(#mask0_1305_6302)">
<g filter="url(#filter0_f_1305_6302)">
<ellipse cx="72" cy="61.5" rx="140" ry="143.5" transform="rotate(-180 72 61.5)" fill="#6D0042"/>
</g>
<g filter="url(#filter1_f_1305_6302)">
<circle cx="6.00001" cy="131" r="74" transform="rotate(-180 6.00001 131)" fill="#60008D"/>
</g>
<g filter="url(#filter2_f_1305_6302)">
<circle cx="138" cy="5.99999" r="74" transform="rotate(-180 138 5.99999)" fill="#00B8FE"/>
</g>
<g filter="url(#filter3_f_1305_6302)">
<ellipse cx="3" cy="5.5" rx="66" ry="58.5" fill="#1F00DC"/>
</g>
<g filter="url(#filter4_f_1305_6302)">
<ellipse cx="138" cy="138" rx="70" ry="74" fill="#9300D9"/>
</g>
<rect width="138" height="138" fill="url(#paint1_linear_1305_6302)" fill-opacity="0.15" style="mix-blend-mode:multiply"/>
</g>
<path style="mix-blend-mode:multiply" fill-rule="evenodd" clip-rule="evenodd" d="M0 130V132C0 135.314 2.68629 138 6 138H132C135.314 138 138 135.314 138 132V130C138 133.314 135.314 136 132 136H6C2.68629 136 0 133.314 0 130ZM6 0C3.10051 0 0.681376 2.05669 0.121899 4.79079C0.681379 2.0567 3.10051 7.62939e-06 6 7.62939e-06L132 0C135.314 7.62939e-06 138 2.6863 138 6C138 2.68629 135.314 0 132 0H6Z" fill="black" fill-opacity="0.3"/>
<g style="mix-blend-mode:screen">
<path fill-rule="evenodd" clip-rule="evenodd" d="M137.936 132.881C137.51 135.777 135.014 138 132 138L6 138L132 138C135.014 138 137.51 135.777 137.936 132.881ZM1.11232e-05 7.99996C1.14067e-05 4.68625 2.68629 1.99996 6.00001 1.99996L132 1.99997C135.311 1.99997 137.995 4.68103 138 7.9903L138 6C138 2.68629 135.314 -2.3995e-07 132 -5.35941e-07L6.00001 -1.17907e-05C2.68631 -1.20867e-05 1.15778e-05 2.68628 1.12943e-05 5.99999L1.11232e-05 7.99996Z" fill="white" fill-opacity="0.2" style="mix-blend-mode:multiply"/>
</g>
<rect x="-1" width="26" height="12" fill="#005BBB"/>
<rect x="-1" y="12" width="26" height="12" fill="#FFD500"/>
<path d="M-14 44.8854L37.3091 18L71 19.5511L101.5 48.5L108.5 61.5L109.5 110L49 185H-14V44.8854Z" fill="url(#paint2_linear_1305_6302)"/>
<path fill-rule="evenodd" clip-rule="evenodd" d="M73.3083 59.3613C71.0153 59.3613 69.1565 61.2202 69.1565 63.5132V107.723C69.1565 110.016 71.0153 111.874 73.3083 111.874H105.848C108.141 111.874 110 110.016 110 107.723V63.5132C110 61.2202 108.141 59.3613 105.848 59.3613H73.3083ZM73.2406 65.0667C73.2406 64.4935 73.7053 64.0288 74.2786 64.0288H104.877C105.451 64.0288 105.915 64.4935 105.915 65.0667V79.9117C105.915 80.4849 105.451 80.9496 104.877 80.9496H74.2786C73.7053 80.9496 73.2406 80.4849 73.2406 79.9117V65.0667ZM73.2407 85.4883C73.2407 84.915 73.7054 84.4503 74.2787 84.4503H80.3715C80.9447 84.4503 81.4094 84.915 81.4094 85.4883V89.2471C81.4094 89.8204 80.9447 90.2851 80.3715 90.2851H74.2787C73.7054 90.2851 73.2407 89.8204 73.2407 89.2471V85.4883ZM74.2787 93.2025C73.7054 93.2025 73.2407 93.6672 73.2407 94.2405V97.9994C73.2407 98.5726 73.7054 99.0373 74.2787 99.0373H80.3715C80.9447 99.0373 81.4094 98.5726 81.4094 97.9993V94.2405C81.4094 93.6672 80.9447 93.2025 80.3715 93.2025H74.2787ZM73.2407 102.993C73.2407 102.419 73.7054 101.955 74.2787 101.955H80.3715C80.9447 101.955 81.4094 102.419 81.4094 102.993V106.752C81.4094 107.325 80.9447 107.79 80.3715 107.79H74.2787C73.7054 107.79 73.2407 107.325 73.2407 106.752V102.993ZM86.5318 84.4503C85.9586 84.4503 85.4939 84.915 85.4939 85.4883V89.2471C85.4939 89.8204 85.9586 90.2851 86.5318 90.2851H92.6246C93.1979 90.2851 93.6626 89.8204 93.6626 89.2471V85.4883C93.6626 84.915 93.1979 84.4503 92.6246 84.4503H86.5318ZM85.4939 94.2405C85.4939 93.6672 85.9586 93.2025 86.5318 93.2025H92.6246C93.1979 93.2025 93.6626 93.6672 93.6626 94.2405V97.9993C93.6626 98.5726 93.1979 99.0373 92.6246 99.0373H86.5318C85.9586 99.0373 85.4939 98.5726 85.4939 97.9994V94.2405ZM86.5318 101.955C85.9586 101.955 85.4939 102.419 85.4939 102.993V106.752C85.4939 107.325 85.9586 107.79 86.5318 107.79H92.6246C93.1979 107.79 93.6626 107.325 93.6626 106.752V102.993C93.6626 102.419 93.1979 101.955 92.6246 101.955H86.5318ZM97.7468 85.4883C97.7468 84.915 98.2115 84.4503 98.7847 84.4503H104.878C105.451 84.4503 105.915 84.915 105.915 85.4883V89.2471C105.915 89.8204 105.451 90.2851 104.878 90.2851H98.7847C98.2115 90.2851 97.7468 89.8204 97.7468 89.2471V85.4883ZM98.7847 93.2025C98.2115 93.2025 97.7468 93.6672 97.7468 94.2405V97.9994C97.7468 98.5726 98.2115 99.0373 98.7847 99.0373H104.878C105.451 99.0373 105.915 98.5726 105.915 97.9993V94.2405C105.915 93.6672 105.451 93.2025 104.878 93.2025H98.7847ZM97.7468 102.993C97.7468 102.419 98.2115 101.955 98.7847 101.955H104.878C105.451 101.955 105.915 102.419 105.915 102.993V106.752C105.915 107.325 105.451 107.79 104.878 107.79H98.7847C98.2115 107.79 97.7468 107.325 97.7468 106.752V102.993Z" fill="white"/>
<path d="M77.8679 67.5596L80.4481 75.612H80.5472L83.1326 67.5596H85.6347L81.9546 78.1582H79.0459L75.3606 67.5596H77.8679Z" fill="white"/>
<path d="M87.3405 78.1582H84.9218L88.6072 67.5596H91.5158L95.1959 78.1582H92.7773L90.1032 69.9815H90.0198L87.3405 78.1582ZM87.1893 73.9922H92.9024V75.7414H87.1893V73.9922Z" fill="white"/>
<path d="M94.7698 69.4071V67.5596H103.537V69.4071H100.269V78.1582H98.0381V69.4071H94.7698Z" fill="white"/>
<path fill-rule="evenodd" clip-rule="evenodd" d="M69.8281 18H39.1898C36.3236 18 34 20.3235 34 23.1898V97.5992C34 100.465 36.3236 102.789 39.1898 102.789H61.1251C63.7048 102.789 65.796 100.698 65.796 98.1181V61.7109C65.796 58.2714 68.5842 55.4832 72.0237 55.4832H98.8606C100.313 55.4832 101.986 54.5015 101.986 53.0487V49.7823C101.986 48.7842 101.59 47.827 100.884 47.1213L73.1308 19.3681C72.2549 18.4921 71.0669 18 69.8281 18ZM95.5238 48.2449H69.1565V21.8374L95.5238 48.2449ZM42.2722 39.4792V37.5977C44.0794 38.8799 47.383 39.4792 50.6736 39.4792C53.9641 39.4792 57.2677 38.8799 59.0749 37.5977V39.4792C59.0749 41.0346 55.3118 42.2992 50.6736 42.2992C46.0353 42.2992 42.2722 41.0346 42.2722 39.4792ZM42.2722 35.2492V32.9755C44.0794 34.4736 47.3874 35.2492 50.6736 35.2492C53.9597 35.2492 57.2677 34.4736 59.0749 32.9755V35.2492C59.0749 36.8046 55.3118 38.0692 50.6736 38.0692C46.0353 38.0692 42.2722 36.8046 42.2722 35.2492ZM42.2722 30.3141C42.2722 28.3665 46.0353 26.7891 50.6736 26.7891C55.3118 26.7891 59.0749 28.3665 59.0749 30.3141C59.0749 32.2617 55.3118 33.8391 50.6736 33.8391C46.0353 33.8391 42.2722 32.2617 42.2722 30.3141ZM53.5312 63.4111H46.3545C45.7813 63.4111 45.3166 63.8758 45.3166 64.4491V65.389C45.3166 65.9623 45.7813 66.427 46.3545 66.427H49.0505V68.4049C49.0505 68.9781 49.5152 69.4429 50.0885 69.4429H50.9997C51.5729 69.4429 52.0376 68.9781 52.0376 68.4049V66.427H53.5312C54.5215 66.427 55.4713 66.0298 56.1715 65.3228C56.8718 64.6159 57.2652 63.657 57.2652 62.6572C57.2652 61.6573 56.8718 60.6985 56.1715 59.9915C55.4713 59.2845 54.5215 58.8873 53.5312 58.8873H47.5569C47.3589 58.8873 47.1689 58.8079 47.0289 58.6665C46.8888 58.5251 46.8101 58.3333 46.8101 58.1334C46.8101 57.9334 46.8888 57.7416 47.0289 57.6002C47.1689 57.4588 47.3589 57.3794 47.5569 57.3794H54.7336C55.3069 57.3794 55.7716 56.9147 55.7716 56.3414V55.4015C55.7716 54.8282 55.3069 54.3635 54.7336 54.3635H52.0376V52.3856C52.0376 51.8124 51.5729 51.3477 50.9997 51.3477H50.0885C49.5152 51.3477 49.0505 51.8124 49.0505 52.3856V54.3635H47.5569C46.5666 54.3635 45.6169 54.7607 44.9166 55.4677C44.2164 56.1747 43.823 57.1335 43.823 58.1334C43.823 59.1332 44.2164 60.0921 44.9166 60.799C45.6169 61.506 46.5666 61.9032 47.5569 61.9032H53.5312C53.7293 61.9032 53.9192 61.9826 54.0593 62.124C54.1993 62.2654 54.278 62.4572 54.278 62.6572C54.278 62.8571 54.1993 63.0489 54.0593 63.1903C53.9192 63.3317 53.7293 63.4111 53.5312 63.4111ZM44.8572 91.8354V92.3359C44.8572 92.7331 44.7229 93.0667 44.4544 93.3368C44.1858 93.6069 43.8462 93.7419 43.4354 93.7419C43.0405 93.7419 42.705 93.6027 42.4288 93.3244C42.1521 93.0467 42.0137 92.7092 42.0137 92.3121V85.1628L44.0041 79.4435C44.0989 79.1575 44.2689 78.9271 44.5141 78.7524C44.7586 78.5776 45.031 78.4902 45.3311 78.4902H55.7574C56.0576 78.4902 56.3302 78.5776 56.5754 78.7524C56.8199 78.9271 56.9896 79.1575 57.0844 79.4435L59.0749 85.1628V92.3359C59.0749 92.7331 58.9406 93.0667 58.672 93.3368C58.4035 93.6069 58.0638 93.7419 57.6531 93.7419C57.2582 93.7419 56.9226 93.6027 56.6465 93.3244C56.3697 93.0467 56.2313 92.7092 56.2313 92.3121V91.8354H44.8572ZM44.6676 83.2564H56.4209L55.4257 80.3967H45.6629L44.6676 83.2564ZM46.279 88.9758C46.6739 88.9758 47.0094 88.8366 47.2856 88.5582C47.5624 88.2805 47.7007 87.9431 47.7007 87.5459C47.7007 87.1487 47.5624 86.8113 47.2856 86.5336C47.0094 86.2552 46.6739 86.1161 46.279 86.1161C45.884 86.1161 45.5485 86.2552 45.2724 86.5336C44.9956 86.8113 44.8572 87.1487 44.8572 87.5459C44.8572 87.9431 44.9956 88.2805 45.2724 88.5582C45.5485 88.8366 45.884 88.9758 46.279 88.9758ZM54.8096 88.9758C55.2045 88.9758 55.54 88.8366 55.8162 88.5582C56.0929 88.2805 56.2313 87.9431 56.2313 87.5459C56.2313 87.1487 56.0929 86.8113 55.8162 86.5336C55.54 86.2552 55.2045 86.1161 54.8096 86.1161C54.4146 86.1161 54.0791 86.2552 53.803 86.5336C53.5262 86.8113 53.3878 87.1487 53.3878 87.5459C53.3878 87.9431 53.5262 88.2805 53.803 88.5582C54.0791 88.8366 54.4146 88.9758 54.8096 88.9758Z" fill="white"/>
<path d="M15.9408 132.446C13.5951 132.446 11.4908 132.022 9.628 131.173C7.76521 130.288 6.28188 129.104 5.178 127.618C4.10862 126.133 3.52219 124.488 3.4187 122.684H10.7146C10.8526 123.816 11.386 124.898 12.3174 125.641C13.2833 126.383 14.5265 126.868 15.9408 126.868C17.3206 126.868 18.2353 126.622 18.9533 125.975C19.6713 125.328 19.9759 124.77 20.0847 123.878C20.2043 122.896 19.8671 122.115 18.8385 121.464C17.9071 120.969 16.4065 120.439 14.3367 119.873C12.198 119.342 10.4387 118.794 9.05882 118.228C7.71347 117.662 6.5406 116.796 5.54021 115.629C4.57432 114.462 4.09138 112.888 4.09138 110.907C4.09138 109.28 4.53983 107.795 5.43672 106.451C6.36812 105.107 7.67897 104.046 9.36928 103.268C11.0941 102.49 13.1121 102.101 15.4234 102.101C18.8385 102.101 21.5637 102.985 23.5989 104.753C25.6342 106.486 26.7553 108.838 26.9623 111.809H20.0286C19.9251 110.642 19.4241 109.6 18.5617 108.928C17.7338 108.221 16.5819 107.679 15.1676 107.679C13.8567 107.679 12.9499 107.92 12.2956 108.504C11.6057 108.999 11.2295 109.829 11.2295 110.713C11.2295 111.704 11.6115 112.552 12.5774 113.082C13.5433 113.577 15.0439 114.09 17.0792 114.621C19.1489 115.151 20.8565 115.699 22.2018 116.265C23.5472 116.831 24.7028 117.715 25.6687 118.918C26.6691 120.085 27.1865 121.641 27.221 123.586C27.221 125.284 26.7553 126.805 25.8239 128.149C24.927 129.493 23.6162 130.554 21.8914 131.332C20.2011 132.075 18.2175 132.446 15.9408 132.446Z" fill="white"/>
<ellipse cx="33.6396" cy="127.525" rx="4.81395" ry="4.92086" fill="white"/>
<rect x="-1" width="26" height="12" fill="#005BBB"/>
<rect x="-1" y="12" width="26" height="12" fill="#FFD500"/>
</g>
<defs>
<filter id="filter0_f_1305_6302" x="-103" y="-117" width="350" height="357" filterUnits="userSpaceOnUse" color-interpolation-filters="sRGB">
<feFlood flood-opacity="0" result="BackgroundImageFix"/>
<feBlend mode="normal" in="SourceGraphic" in2="BackgroundImageFix" result="shape"/>
<feGaussianBlur stdDeviation="17.5" result="effect1_foregroundBlur_1305_6302"/>
</filter>
<filter id="filter1_f_1305_6302" x="-168" y="-43" width="348" height="348" filterUnits="userSpaceOnUse" color-interpolation-filters="sRGB">
<feFlood flood-opacity="0" result="BackgroundImageFix"/>
<feBlend mode="normal" in="SourceGraphic" in2="BackgroundImageFix" result="shape"/>
<feGaussianBlur stdDeviation="50" result="effect1_foregroundBlur_1305_6302"/>
</filter>
<filter id="filter2_f_1305_6302" x="-36" y="-168" width="348" height="348" filterUnits="userSpaceOnUse" color-interpolation-filters="sRGB">
<feFlood flood-opacity="0" result="BackgroundImageFix"/>
<feBlend mode="normal" in="SourceGraphic" in2="BackgroundImageFix" result="shape"/>
<feGaussianBlur stdDeviation="50" result="effect1_foregroundBlur_1305_6302"/>
</filter>
<filter id="filter3_f_1305_6302" x="-163" y="-153" width="332" height="317" filterUnits="userSpaceOnUse" color-interpolation-filters="sRGB">
<feFlood flood-opacity="0" result="BackgroundImageFix"/>
<feBlend mode="normal" in="SourceGraphic" in2="BackgroundImageFix" result="shape"/>
<feGaussianBlur stdDeviation="50" result="effect1_foregroundBlur_1305_6302"/>
</filter>
<filter id="filter4_f_1305_6302" x="-32" y="-36" width="340" height="348" filterUnits="userSpaceOnUse" color-interpolation-filters="sRGB">
<feFlood flood-opacity="0" result="BackgroundImageFix"/>
<feBlend mode="normal" in="SourceGraphic" in2="BackgroundImageFix" result="shape"/>
<feGaussianBlur stdDeviation="50" result="effect1_foregroundBlur_1305_6302"/>
</filter>
<linearGradient id="paint0_linear_1305_6302" x1="-2.57045e-07" y1="138" x2="140.965" y2="3.09775" gradientUnits="userSpaceOnUse">
<stop/>
<stop offset="1" stop-opacity="0"/>
</linearGradient>
<linearGradient id="paint1_linear_1305_6302" x1="-2.57045e-07" y1="138" x2="140.965" y2="3.09775" gradientUnits="userSpaceOnUse">
<stop/>
<stop offset="1" stop-opacity="0"/>
</linearGradient>
<linearGradient id="paint2_linear_1305_6302" x1="-6.6966" y1="157.801" x2="74.1417" y2="63.1206" gradientUnits="userSpaceOnUse">
<stop stop-opacity="0.24"/>
<stop offset="1" stop-opacity="0.1"/>
</linearGradient>
<clipPath id="clip0_1305_6302">
<rect width="138" height="138" rx="6" fill="white"/>
</clipPath>
</defs>
</svg>
